<svg version="1.2" xmlns="http://www.w3.org/2000/svg" viewBox="0 0 512 512" width="512" height="512">
	<title>logo-svg</title>
	<defs>
		<clipPath clipPathUnits="userSpaceOnUse" id="cp1">
			<path d="m257.34 454.87c-209.83-123.59-173.25-312.51-173.25-312.51 71.69 0 173.25-82.89 173.25-82.89 0 0 101.55 82.89 173.24 82.89 0 0 36.59 188.92-173.24 312.51z"/>
		</clipPath>
		<linearGradient id="g1" x2="1" gradientUnits="userSpaceOnUse" gradientTransform="matrix(279.311,0,0,1190.127,235.201,36.372)">
			<stop offset="0" stop-color="#b5ffa6"/>
			<stop offset="1" stop-color="#8ad379"/>
		</linearGradient>
		<linearGradient id="g2" x2="1" gradientUnits="userSpaceOnUse" gradientTransform="matrix(279.311,0,0,2388.653,235.201,2.132)">
			<stop offset="0" stop-color="#b5ffa6"/>
			<stop offset="1" stop-color="#8ad379"/>
		</linearGradient>
		<linearGradient id="g3" x2="1" gradientUnits="userSpaceOnUse" gradientTransform="matrix(279.311,0,0,200.527,235.201,306.751)">
			<stop offset="0" stop-color="#b5ffa6"/>
			<stop offset="1" stop-color="#8ad379"/>
		</linearGradient>
		<linearGradient id="g4" x2="1" gradientUnits="userSpaceOnUse" gradientTransform="matrix(279.311,0,0,79.022,235.201,318.578)">
			<stop offset="0" stop-color="#b5ffa6"/>
			<stop offset="1" stop-color="#8ad379"/>
		</linearGradient>
		<linearGradient id="g5" x2="1" gradientUnits="userSpaceOnUse" gradientTransform="matrix(279.311,0,0,151.366,235.201,207.131)">
			<stop offset="0" stop-color="#b5ffa6"/>
			<stop offset="1" stop-color="#8ad379"/>
		</linearGradient>
		<linearGradient id="g6" x2="1" gradientUnits="userSpaceOnUse" gradientTransform="matrix(279.311,0,0,78.627,235.201,278.477)">
			<stop offset="0" stop-color="#b5ffa6"/>
			<stop offset="1" stop-color="#8ad379"/>
		</linearGradient>
		<linearGradient id="g7" x2="1" gradientUnits="userSpaceOnUse" gradientTransform="matrix(279.311,0,0,84.965,235.201,349.833)">
			<stop offset="0" stop-color="#b5ffa6"/>
			<stop offset="1" stop-color="#8ad379"/>
		</linearGradient>
		<linearGradient id="g8" x2="1" gradientUnits="userSpaceOnUse" gradientTransform="matrix(279.311,0,0,1640.763,235.201,3.639)">
			<stop offset="0" stop-color="#b5ffa6"/>
			<stop offset="1" stop-color="#8ad379"/>
		</linearGradient>
		<linearGradient id="g9" x2="1" gradientUnits="userSpaceOnUse" gradientTransform="matrix(-220.771,0,0,-1296.259,235.201,3.577)">
			<stop offset="0" stop-color="#b5ffa6"/>
			<stop offset="1" stop-color="#8ad379"/>
		</linearGradient>
		<linearGradient id="g10" x2="1" gradientUnits="userSpaceOnUse" gradientTransform="matrix(279.311,0,0,556.845,235.201,458.424)">
			<stop offset="0" stop-color="#b5ffa6"/>
			<stop offset="1" stop-color="#8ad379"/>
		</linearGradient>
		<linearGradient id="g11" x2="1" gradientUnits="userSpaceOnUse" gradientTransform="matrix(279.311,0,0,1106.608,235.201,342.175)">
			<stop offset="0" stop-color="#b5ffa6"/>
			<stop offset="1" stop-color="#8ad379"/>
		</linearGradient>
		<linearGradient id="g12" x2="1" gradientUnits="userSpaceOnUse" gradientTransform="matrix(279.311,0,0,1187.132,235.201,519.622)">
			<stop offset="0" stop-color="#b5ffa6"/>
			<stop offset="1" stop-color="#8ad379"/>
		</linearGradient>
		<linearGradient id="g13" x2="1" gradientUnits="userSpaceOnUse" gradientTransform="matrix(279.311,0,0,553.946,235.201,25.339)">
			<stop offset="0" stop-color="#b5ffa6"/>
			<stop offset="1" stop-color="#8ad379"/>
		</linearGradient>
		<linearGradient id="g14" x2="1" gradientUnits="userSpaceOnUse" gradientTransform="matrix(279.311,0,0,1853.533,235.201,110.486)">
			<stop offset="0" stop-color="#b5ffa6"/>
			<stop offset="1" stop-color="#8ad379"/>
		</linearGradient>
		<linearGradient id="g15" x2="1" gradientUnits="userSpaceOnUse" gradientTransform="matrix(279.311,0,0,1838.978,235.201,356.864)">
			<stop offset="0" stop-color="#b5ffa6"/>
			<stop offset="1" stop-color="#8ad379"/>
		</linearGradient>
		<linearGradient id="g16" x2="1" gradientUnits="userSpaceOnUse" gradientTransform="matrix(279.311,0,0,809.534,235.201,390.367)">
			<stop offset="0" stop-color="#b5ffa6"/>
			<stop offset="1" stop-color="#8ad379"/>
		</linearGradient>
		<linearGradient id="g17" x2="1" gradientUnits="userSpaceOnUse" gradientTransform="matrix(-220.771,0,0,-1033.476,235.201,500.693)">
			<stop offset="0" stop-color="#b5ffa6"/>
			<stop offset="1" stop-color="#8ad379"/>
		</linearGradient>
		<linearGradient id="g18" x2="1" gradientUnits="userSpaceOnUse" gradientTransform="matrix(279.311,0,0,1801.663,235.201,467.936)">
			<stop offset="0" stop-color="#b5ffa6"/>
			<stop offset="1" stop-color="#8ad379"/>
		</linearGradient>
		<linearGradient id="g19" x2="1" gradientUnits="userSpaceOnUse" gradientTransform="matrix(279.306,0,0,380.768,235.31,520.801)">
			<stop offset="0" stop-color="#b5ffa6"/>
			<stop offset="1" stop-color="#8ad379"/>
		</linearGradient>
		<linearGradient id="g20" x2="1" gradientUnits="userSpaceOnUse" gradientTransform="matrix(279.311,0,0,1040.577,235.201,510.542)">
			<stop offset="0" stop-color="#b5ffa6"/>
			<stop offset="1" stop-color="#8ad379"/>
		</linearGradient>
		<linearGradient id="g21" x2="1" gradientUnits="userSpaceOnUse" gradientTransform="matrix(-220.771,0,0,-53.909,235.201,295.186)">
			<stop offset="0" stop-color="#b5ffa6"/>
			<stop offset="1" stop-color="#8ad379"/>
		</linearGradient>
		<linearGradient id="g22" x2="1" gradientUnits="userSpaceOnUse" gradientTransform="matrix(279.311,0,0,581.86,235.201,44.477)">
			<stop offset="0" stop-color="#b5ffa6"/>
			<stop offset="1" stop-color="#8ad379"/>
		</linearGradient>
		<linearGradient id="g23" x2="1" gradientUnits="userSpaceOnUse" gradientTransform="matrix(279.311,0,0,126.366,235.201,351.278)">
			<stop offset="0" stop-color="#b5ffa6"/>
			<stop offset="1" stop-color="#8ad379"/>
		</linearGradient>
		<linearGradient id="g24" x2="1" gradientUnits="userSpaceOnUse" gradientTransform="matrix(-220.771,0,0,-457.405,235.201,22.402)">
			<stop offset="0" stop-color="#b5ffa6"/>
			<stop offset="1" stop-color="#8ad379"/>
		</linearGradient>
		<linearGradient id="g25" x2="1" gradientUnits="userSpaceOnUse" gradientTransform="matrix(279.311,0,0,4657.006,235.201,-4.404)">
			<stop offset="0" stop-color="#b5ffa6"/>
			<stop offset="1" stop-color="#8ad379"/>
		</linearGradient>
		<linearGradient id="g26" x2="1" gradientUnits="userSpaceOnUse" gradientTransform="matrix(279.311,0,0,1998.315,235.201,3.459)">
			<stop offset="0" stop-color="#b5ffa6"/>
			<stop offset="1" stop-color="#8ad379"/>
		</linearGradient>
		<linearGradient id="g27" x2="1" gradientUnits="userSpaceOnUse" gradientTransform="matrix(279.311,0,0,78.248,235.201,265.757)">
			<stop offset="0" stop-color="#b5ffa6"/>
			<stop offset="1" stop-color="#8ad379"/>
		</linearGradient>
		<linearGradient id="g28" x2="1" gradientUnits="userSpaceOnUse" gradientTransform="matrix(279.311,0,0,1064.929,235.201,13.313)">
			<stop offset="0" stop-color="#b5ffa6"/>
			<stop offset="1" stop-color="#8ad379"/>
		</linearGradient>
		<linearGradient id="g29" x2="1" gradientUnits="userSpaceOnUse" gradientTransform="matrix(279.311,0,0,265.003,235.201,233.784)">
			<stop offset="0" stop-color="#b5ffa6"/>
			<stop offset="1" stop-color="#8ad379"/>
		</linearGradient>
		<linearGradient id="g30" x2="1" gradientUnits="userSpaceOnUse" gradientTransform="matrix(279.311,0,0,279.311,235.201,424.146)">
			<stop offset="0" stop-color="#b5ffa6"/>
			<stop offset="1" stop-color="#8ad379"/>
		</linearGradient>
		<linearGradient id="g31" x2="1" gradientUnits="userSpaceOnUse" gradientTransform="matrix(279.311,0,0,279.311,235.206,302.547)">
			<stop offset="0" stop-color="#b5ffa6"/>
			<stop offset="1" stop-color="#8ad379"/>
		</linearGradient>
		<linearGradient id="g32" x2="1" gradientUnits="userSpaceOnUse" gradientTransform="matrix(279.311,0,0,279.311,235.204,436.365)">
			<stop offset="0" stop-color="#b5ffa6"/>
			<stop offset="1" stop-color="#8ad379"/>
		</linearGradient>
		<linearGradient id="g33" x2="1" gradientUnits="userSpaceOnUse" gradientTransform="matrix(279.311,0,0,279.311,235.201,399.679)">
			<stop offset="0" stop-color="#b5ffa6"/>
			<stop offset="1" stop-color="#8ad379"/>
		</linearGradient>
		<linearGradient id="g34" x2="1" gradientUnits="userSpaceOnUse" gradientTransform="matrix(279.311,0,0,279.311,235.201,413.355)">
			<stop offset="0" stop-color="#b5ffa6"/>
			<stop offset="1" stop-color="#8ad379"/>
		</linearGradient>
		<linearGradient id="g35" x2="1" gradientUnits="userSpaceOnUse" gradientTransform="matrix(279.311,0,0,279.311,235.197,451.746)">
			<stop offset="0" stop-color="#b5ffa6"/>
			<stop offset="1" stop-color="#8ad379"/>
		</linearGradient>
		<linearGradient id="g36" x2="1" gradientUnits="userSpaceOnUse" gradientTransform="matrix(279.311,0,0,279.311,235.202,367.356)">
			<stop offset="0" stop-color="#b5ffa6"/>
			<stop offset="1" stop-color="#8ad379"/>
		</linearGradient>
		<linearGradient id="g37" x2="1" gradientUnits="userSpaceOnUse" gradientTransform="matrix(279.311,0,0,279.311,235.199,367.344)">
			<stop offset="0" stop-color="#b5ffa6"/>
			<stop offset="1" stop-color="#8ad379"/>
		</linearGradient>
		<linearGradient id="g38" x2="1" gradientUnits="userSpaceOnUse" gradientTransform="matrix(279.311,0,0,1124.426,235.201,342.175)">
			<stop offset="0" stop-color="#b5ffa6"/>
			<stop offset="1" stop-color="#8ad379"/>
		</linearGradient>
		<linearGradient id="g39" x2="1" gradientUnits="userSpaceOnUse" gradientTransform="matrix(279.311,0,0,85.265,235.201,250.037)">
			<stop offset="0" stop-color="#b5ffa6"/>
			<stop offset="1" stop-color="#8ad379"/>
		</linearGradient>
		<linearGradient id="g40" x2="1" gradientUnits="userSpaceOnUse" gradientTransform="matrix(279.311,0,0,79.011,235.201,170.29)">
			<stop offset="0" stop-color="#b5ffa6"/>
			<stop offset="1" stop-color="#8ad379"/>
		</linearGradient>
		<linearGradient id="g41" x2="1" gradientUnits="userSpaceOnUse" gradientTransform="matrix(279.311,0,0,76.721,235.201,182.26)">
			<stop offset="0" stop-color="#b5ffa6"/>
			<stop offset="1" stop-color="#8ad379"/>
		</linearGradient>
		<linearGradient id="g42" x2="1" gradientUnits="userSpaceOnUse" gradientTransform="matrix(279.311,0,0,2549.753,235.201,-42.019)">
			<stop offset="0" stop-color="#b5ffa6"/>
			<stop offset="1" stop-color="#8ad379"/>
		</linearGradient>
		<linearGradient id="g43" x2="1" gradientUnits="userSpaceOnUse" gradientTransform="matrix(279.311,0,0,131.197,235.201,190.883)">
			<stop offset="0" stop-color="#b5ffa6"/>
			<stop offset="1" stop-color="#8ad379"/>
		</linearGradient>
		<linearGradient id="g44" x2="1" gradientUnits="userSpaceOnUse" gradientTransform="matrix(279.311,0,0,108.686,235.201,257.728)">
			<stop offset="0" stop-color="#b5ffa6"/>
			<stop offset="1" stop-color="#8ad379"/>
		</linearGradient>
		<linearGradient id="g45" x2="1" gradientUnits="userSpaceOnUse" gradientTransform="matrix(-220.771,0,0,-69.334,235.201,199.677)">
			<stop offset="0" stop-color="#b5ffa6"/>
			<stop offset="1" stop-color="#8ad379"/>
		</linearGradient>
		<linearGradient id="g46" x2="1" gradientUnits="userSpaceOnUse" gradientTransform="matrix(279.311,0,0,279.311,235.201,89.917)">
			<stop offset="0" stop-color="#b5ffa6"/>
			<stop offset="1" stop-color="#8ad379"/>
		</linearGradient>
		<linearGradient id="g47" x2="1" gradientUnits="userSpaceOnUse" gradientTransform="matrix(279.306,0,0,279.306,235.201,89.917)">
			<stop offset="0" stop-color="#b5ffa6"/>
			<stop offset="1" stop-color="#8ad379"/>
		</linearGradient>
		<linearGradient id="g48" x2="1" gradientUnits="userSpaceOnUse" gradientTransform="matrix(279.306,0,0,279.306,235.201,13.413)">
			<stop offset="0" stop-color="#b5ffa6"/>
			<stop offset="1" stop-color="#8ad379"/>
		</linearGradient>
		<linearGradient id="g49" x2="1" gradientUnits="userSpaceOnUse" gradientTransform="matrix(175.692,0,0,395.404,81.646,257.172)">
			<stop offset="0" stop-color="#b5ffa6"/>
			<stop offset="1" stop-color="#8ad379"/>
		</linearGradient>
	</defs>
	<style>
		.s0 { fill: #b5ffa6 } 
		.s1 { fill: #8ad379 } 
		.s2 { fill: url(#g1) } 
		.s3 { fill: url(#g2) } 
		.s4 { fill: url(#g3) } 
		.s5 { fill: url(#g4) } 
		.s6 { fill: url(#g5) } 
		.s7 { fill: url(#g6) } 
		.s8 { fill: url(#g7) } 
		.s9 { fill: url(#g8) } 
		.s10 { fill: url(#g9) } 
		.s11 { fill: url(#g10) } 
		.s12 { fill: url(#g11) } 
		.s13 { fill: url(#g12) } 
		.s14 { fill: url(#g13) } 
		.s15 { fill: url(#g14) } 
		.s16 { fill: url(#g15) } 
		.s17 { fill: url(#g16) } 
		.s18 { fill: url(#g17) } 
		.s19 { fill: url(#g18) } 
		.s20 { fill: url(#g19) } 
		.s21 { fill: url(#g20) } 
		.s22 { fill: url(#g21) } 
		.s23 { fill: url(#g22) } 
		.s24 { fill: url(#g23) } 
		.s25 { fill: url(#g24) } 
		.s26 { fill: url(#g25) } 
		.s27 { fill: url(#g26) } 
		.s28 { fill: url(#g27) } 
		.s29 { fill: url(#g28) } 
		.s30 { fill: url(#g29) } 
		.s31 { fill: url(#g30) } 
		.s32 { fill: url(#g31) } 
		.s33 { fill: url(#g32) } 
		.s34 { fill: url(#g33) } 
		.s35 { fill: url(#g34) } 
		.s36 { fill: url(#g35) } 
		.s37 { fill: url(#g36) } 
		.s38 { fill: url(#g37) } 
		.s39 { fill: url(#g38) } 
		.s40 { fill: url(#g39) } 
		.s41 { fill: url(#g40) } 
		.s42 { fill: url(#g41) } 
		.s43 { fill: url(#g42) } 
		.s44 { fill: url(#g43) } 
		.s45 { fill: url(#g44) } 
		.s46 { fill: url(#g45) } 
		.s47 { fill: url(#g46) } 
		.s48 { fill: url(#g47) } 
		.s49 { fill: url(#g48) } 
		.s50 { fill: url(#g49) } 
		.s51 { fill: #234c17 } 
	</style>
	<g id="Carpeta 1">
		<path class="s0" d="m257.3 487c-243.9-143.7-201.4-363.3-201.4-363.3 83.4 0 201.4-96.3 201.4-96.3 0 0 118.1 96.3 201.4 96.3 0 0 42.6 219.6-201.4 363.3z"/>
		<path class="s1" d="m430.6 142.4l22.9-9.9c0 0 62.5 198.2-196.2 354.5v-58z"/>
		<path class="s0" d="m257.3 454.9c-209.8-123.6-173.2-312.5-173.2-312.5 71.7 0 173.2-82.9 173.2-82.9 0 0 101.6 82.9 173.3 82.9 0 0 36.6 188.9-173.3 312.5z"/>
		<g id="Clip-Path" clip-path="url(#cp1)">
			<g>
				<g>
					<path fill-rule="evenodd" class="s2" d="m426.8 52.7v56.1c1.1 0.5 1.8 1.6 1.8 2.9 0 1.7-1.4 3.1-3.1 3.1-1.8 0-3.2-1.4-3.2-3.1 0-1.6 1.1-2.9 2.6-3.1v-56.6l19.2-19.2v-60.7c0-0.5 0-0.9 7.4-7.9-0.3-0.7-0.6-1.4-0.6-2.2 0-2.3 1.9-4.1 4.1-4.1 2.3 0 4.1 1.8 4.1 4.1 0 2.3-1.8 4.1-4.1 4.1-0.8 0-1.5-0.2-2.1-0.6-3.1 2.9-6.3 6-7 6.8v61.2zm30.6-90.7c0-1.2-1-2.2-2.3-2.2-1.2 0-2.2 1-2.2 2.2 0 1.2 1 2.2 2.2 2.2 1.3 0 2.3-1 2.3-2.2z"/>
					<path class="s3" d="m436.5 52v48.7l20.5 20.5v24.8c-1.5 0.3-2.5 1.6-2.5 3.1 0 1.7 1.4 3.2 3.1 3.2 1.8 0 3.2-1.5 3.2-3.2 0-1.3-0.8-2.5-2-2.9v-25.8l-20.5-20.5v-47.1l32.8-32.8v-0.4c0-0.4 0.3-42 0.4-83.2 0.1-24.2 0.1-43.5 0.1-57.3-0.1-26.7-0.2-26.8-1-27.1l-1.1 0.2 0.7 0.7-0.3 0.8c-0.3-0.1-0.5-0.4-0.6-0.6 0.7 3.5 0.3 110 0 166.1l-32.8 32.8z"/>
					<path fill-rule="evenodd" class="s4" d="m337.2 331.3q-0.2-0.7-0.2-1.5 0-1.3 0.6-2.5c0.7-1.3 1.8-2.2 3.2-2.6 2.8-0.8 5.7 0.8 6.6 3.6q0.1 0.4 0.1 0.8h26.5v-32.4l15.9-16h19.9c0.3-1.3 1.6-2.3 3-2.3 1.8 0 3.2 1.4 3.2 3.2 0 1.7-1.4 3.1-3.2 3.1-1.3 0-2.5-0.9-2.9-2.1h-19.2l-14.9 14.9v33.5h-28.4c-0.4 1.8-1.7 3.3-3.6 3.9-1.4 0.4-2.8 0.2-4.1-0.4-1.2-0.7-2.1-1.8-2.5-3.2zm1.8-0.5c0.5 1.8 2.4 2.8 4.2 2.3 1.5-0.4 2.5-1.8 2.5-3.3q0-0.5-0.1-0.9c-0.6-1.9-2.5-2.9-4.3-2.4-0.9 0.3-1.6 0.9-2 1.7-0.5 0.8-0.6 1.7-0.3 2.6z"/>
					<path class="s5" d="m252.9 330.9h-27.7v1.8h26.9l12.9 12.9h116.2v-31.6l18.4-18.3h10.2c0.4 1.3 1.6 2.2 3 2.2 1.8 0 3.2-1.4 3.2-3.1 0-1.8-1.4-3.2-3.2-3.2-1.4 0-2.6 0.9-3 2.2h-11l-19.5 19.4v30.5h-113.6c0 0-12.8-12.8-12.8-12.8z"/>
					<path fill-rule="evenodd" class="s6" d="m315.5 210.3c3.5 0.2 6.1 3.2 5.9 6.7-0.1 1.6-0.8 3.2-2.1 4.3-1.2 1.1-2.8 1.7-4.5 1.6-1.7-0.1-3.2-0.9-4.3-2.1-1.1-1.2-1.6-2.7-1.6-4.2q0-0.2 0-0.4c0-1.1 0.4-2.1 0.9-3l-20-19.9-26.5 0.3v-1.9l27.3-0.3 20.4 20.4c1.2-1 2.8-1.6 4.5-1.5zm4.1 6.3c0-2.3-1.8-4.3-4.2-4.4-2.4-0.2-4.5 1.7-4.7 4.1 0 1.2 0.4 2.3 1.1 3.2 0.8 0.9 1.9 1.4 3.1 1.5 2.4 0.1 4.5-1.7 4.7-4.2q0-0.1 0-0.2z"/>
					<path class="s7" d="m409.8 259.9c0.4 1.3 1.6 2.3 3 2.3 1.8 0 3.2-1.4 3.2-3.2 0-1.7-1.4-3.2-3.2-3.2-1.4 0-2.6 1-3 2.3h-47.5l-41.2 41.1h-65.9v1.9h66.6l41.2-41.2h46.8z"/>
					<path fill-rule="evenodd" class="s8" d="m411.6 329.3l-27.2 27.2h-91.2l-25.5 25.5h-58.3v-1.8h57.5l25.6-25.6h91.1l26.6-26.5q0 0 0 0c-1.1-1.2-1.6-2.6-1.6-4.2q0-0.2 0-0.3c0.1-1.7 0.8-3.3 2.1-4.4 1.2-1.1 2.9-1.7 4.5-1.6 1.7 0.1 3.3 0.9 4.4 2.1 1.1 1.3 1.6 2.9 1.5 4.6-0.2 3.4-3.1 6.1-6.6 5.9-1-0.1-2-0.4-2.9-0.9zm3-1c2.4 0.2 4.5-1.7 4.7-4.1q0-0.2 0-0.3c0-1.1-0.4-2.1-1.1-2.9-0.8-0.9-1.9-1.4-3.1-1.5-1.2-0.1-2.3 0.3-3.2 1.1-0.9 0.8-1.4 1.9-1.5 3.1-0.1 2.4 1.8 4.5 4.2 4.6z"/>
					<path class="s9" d="m404.9 127l21.7 21.6q-0.3 0.5-0.4 1c-0.4 1.7 0.7 3.4 2.4 3.8 1.7 0.4 3.4-0.7 3.8-2.4 0.3-1.7-0.7-3.4-2.5-3.8-0.6-0.1-1.3-0.1-1.9 0.2l-21.2-21.2v-72.8l20.1-20.1v-63.8l29-29v-45.1l-17.2-17.2v-24.4h-1.8v25.2l17.2 17.1v43.6l-29.1 29v63.8l-20.1 20.2z"/>
					<path class="s10" d="m462.8-60.3l-29.1 29v63.8l-20.1 20.2v74.3l21.8 21.7q-0.4 0.7-0.4 1.5c0 1.7 1.4 3.2 3.1 3.2 1.8 0 3.2-1.5 3.2-3.2 0-1.8-1.4-3.2-3.2-3.2q-0.8 0-1.4 0.4l-21.2-21.2v-72.8l20.1-20.1v-63.8l29-29v-45.1l-17.2-17.2v-24.4h-1.8v25.2l17.2 17.1v43.6z"/>
					<path fill-rule="evenodd" class="s11" d="m457 516.5v-63l-21.2-21.1v-27.4q-0.1-0.1-0.3-0.1c-1.1-0.4-1.9-1.1-2.4-2.1q-0.4-0.9-0.4-1.8 0-0.7 0.2-1.3c0.7-2.2 3-3.3 5.1-2.6 1.1 0.3 1.9 1 2.4 2 0.5 1 0.6 2.1 0.3 3.1-0.5 1.5-1.6 2.4-3 2.8v26.6l21.1 21.1v62h27.6q0-0.1 0-0.1c0.3-1 1.1-1.9 2-2.4 1-0.5 2.1-0.6 3.2-0.2 1 0.3 1.9 1 2.4 2 0.5 1 0.5 2.1 0.2 3.1-0.3 1.1-1.1 1.9-2 2.4-1 0.5-2.1 0.6-3.2 0.3-1-0.4-1.9-1.1-2.4-2.1q-0.3-0.6-0.4-1.2zm31.4 0.4c0.2 0.5 0.7 0.9 1.3 1.1 0.5 0.2 1.1 0.1 1.7-0.1 0.5-0.3 0.9-0.8 1.1-1.3q0.1-0.4 0.1-0.7 0-0.6-0.2-1c-0.3-0.6-0.8-1-1.3-1.2-0.6-0.1-1.2-0.1-1.8 0.2-0.5 0.2-0.9 0.7-1.1 1.3-0.2 0.5-0.1 1.1 0.2 1.7zm-52.3-113.8c0.6 0.2 1.2 0.1 1.7-0.1 0.6-0.3 1-0.8 1.2-1.3q0.1-0.4 0.1-0.7 0-0.6-0.3-1c-0.2-0.6-0.7-1-1.3-1.2-1.1-0.3-2.4 0.3-2.8 1.5-0.2 0.5-0.1 1.2 0.1 1.7 0.3 0.5 0.8 0.9 1.3 1.1z"/>
					<path fill-rule="evenodd" class="s12" d="m463.7 334c0.1-3 0-18.2 0-24.4-1.6-0.3-2.7-1.9-2.4-3.6 0.3-1.7 2-2.9 3.7-2.6 1.7 0.4 2.9 2 2.6 3.7-0.2 1.2-1 2-2 2.4 0 6.5 0.1 23.1 0 24.9l-0.1 0.4-12.2 12.2v25.9q0.1 0 0.1 0c1.1 0.4 1.9 1.1 2.4 2.1 0.5 1 0.6 2.1 0.3 3.1-0.7 2.2-3.1 3.3-5.2 2.6-1.1-0.3-1.9-1-2.4-2q-0.5-0.9-0.5-1.9 0-0.6 0.2-1.2c0.5-1.5 1.8-2.5 3.2-2.8v-26.5zm-10.9 40.7c-1.1-0.4-2.4 0.3-2.8 1.4-0.2 0.6-0.1 1.2 0.2 1.8 0.2 0.5 0.7 0.9 1.3 1.1 0.5 0.2 1.1 0.1 1.7-0.2 0.5-0.2 0.9-0.7 1.1-1.3q0.1-0.3 0.1-0.7 0-0.5-0.2-1c-0.3-0.5-0.8-0.9-1.4-1.1z"/>
					<path fill-rule="evenodd" class="s13" d="m504.4 535h-18.2v40.8q0.1 0 0.1 0.1c1.1 0.3 1.9 1 2.4 2 0.5 1 0.6 2.1 0.3 3.1-0.4 1.1-1.1 1.9-2.1 2.4-1 0.5-2.1 0.6-3.1 0.3-1.1-0.4-1.9-1.1-2.4-2.1q-0.5-0.9-0.5-1.8 0-0.7 0.3-1.3c0.3-1.1 1-1.9 2-2.4q0.5-0.3 1.1-0.4v-42.5h18.2v-72.8h-20.2q-0.1 0.2-0.1 0.4c-0.7 2.1-3.1 3.3-5.2 2.6-1-0.3-1.9-1.1-2.4-2q-0.4-0.9-0.4-1.9 0-0.6 0.2-1.3c0.7-2.1 3-3.3 5.1-2.6 1.1 0.3 1.9 1.1 2.4 2q0.2 0.5 0.4 1h22.1zm-23.9-75.6q0-0.5-0.2-1c-0.3-0.5-0.8-0.9-1.3-1.1-1.2-0.4-2.5 0.2-2.9 1.4-0.2 0.6-0.1 1.2 0.2 1.7 0.2 0.6 0.7 1 1.3 1.1 0.5 0.2 1.1 0.2 1.7-0.1 0.5-0.3 0.9-0.7 1.1-1.3q0.1-0.3 0.1-0.7zm5.2 118.1c-0.5-0.1-1.1-0.1-1.7 0.2-0.5 0.2-0.9 0.7-1.1 1.3-0.2 0.5-0.1 1.1 0.1 1.7 0.3 0.5 0.8 0.9 1.3 1.1 0.6 0.2 1.2 0.1 1.8-0.1 0.5-0.3 0.9-0.8 1.1-1.3q0.1-0.4 0.1-0.7 0-0.6-0.3-1c-0.2-0.6-0.7-1-1.3-1.2z"/>
					<path fill-rule="evenodd" class="s14" d="m528.2-30.9h-28c-0.5 1.8-2.1 3.1-4 3.1-2.3 0-4.1-1.9-4.1-4.1 0-2.3 1.8-4.1 4.1-4.1 2 0 3.7 1.4 4 3.3h29.8v63l21.2 21.1v27.3c1.6 0.5 2.8 2.1 2.8 3.9 0 2.3-1.8 4.1-4.1 4.1-2.3 0-4.1-1.8-4.1-4.1 0-2.1 1.5-3.8 3.5-4v-26.4l-21.1-21.1zm23.9 113.4c0-1.2-1-2.2-2.2-2.2-1.2 0-2.2 1-2.2 2.2 0 1.3 1 2.3 2.2 2.3 1.2 0 2.2-1 2.2-2.3zm-53.7-114.5c0-1.2-1-2.2-2.2-2.2-1.2 0-2.2 1-2.2 2.2 0 1.2 1 2.2 2.2 2.2 1.2 0 2.2-1 2.2-2.2z"/>
					<path fill-rule="evenodd" class="s15" d="m496.1 75c0 3.2-2.4 5.8-5.4 6.2v64.8c1.4 0.3 2.4 1.6 2.4 3.1 0 1.7-1.4 3.2-3.2 3.2-1.7 0-3.1-1.5-3.1-3.2 0-1.4 0.8-2.5 2-3v-64.9c-3-0.5-5.3-3.1-5.3-6.2 0-3.5 2.8-6.3 6.3-6.3 3.4 0 6.3 2.8 6.3 6.3zm-1.9 0c0-2.5-2-4.4-4.4-4.4-2.5 0-4.5 1.9-4.5 4.4 0 2.4 2 4.4 4.5 4.4 2.4 0 4.4-2 4.4-4.4z"/>
					<path fill-rule="evenodd" class="s16" d="m498.2 334.8v67.5q0.1 0 0.1 0c1 0.4 1.9 1.1 2.4 2.1 0.5 0.9 0.6 2.1 0.2 3.1-0.3 1-1 1.9-2 2.4-1 0.5-2.1 0.6-3.1 0.2-1.1-0.3-1.9-1-2.4-2q-0.5-0.9-0.5-1.9 0-0.6 0.2-1.3c0.5-1.5 1.8-2.5 3.2-2.7v-66.4l-9.2-5.4v-20.8c-1.5-0.5-2.4-2-2.2-3.6 0.3-1.7 2-2.9 3.7-2.5 1.7 0.3 2.9 1.9 2.6 3.6-0.2 1.2-1.1 2.2-2.2 2.5v19.7c0 0 9.2 5.5 9.2 5.5zm-0.5 69.3c-1.2-0.4-2.4 0.3-2.8 1.4-0.2 0.6-0.1 1.2 0.1 1.7 0.3 0.6 0.8 1 1.3 1.2 0.6 0.1 1.2 0.1 1.7-0.2 0.6-0.2 1-0.7 1.2-1.3q0.1-0.3 0.1-0.7 0-0.5-0.3-1c-0.3-0.5-0.7-0.9-1.3-1.1z"/>
					<path fill-rule="evenodd" class="s17" d="m459.9 391.3l22.3-22.4v-15.2q-0.2-0.1-0.4-0.1c-1-0.3-1.9-1.1-2.3-2.1q-0.5-0.8-0.5-1.8 0-0.7 0.2-1.3c0.4-1 1.1-1.9 2.1-2.4 0.9-0.5 2-0.6 3.1-0.2 1 0.3 1.9 1.1 2.4 2 0.5 1 0.6 2.1 0.2 3.2-0.3 1-1 1.9-2 2.4q-0.5 0.2-1 0.3v16l-22.3 22.3v35.2c1.1 0.3 1.9 1 2.4 2 0.5 1 0.6 2.1 0.2 3.1-0.7 2.2-3 3.4-5.1 2.7-1.1-0.4-1.9-1.1-2.4-2.1q-0.5-0.9-0.5-1.8 0-0.7 0.2-1.3c0.5-1.6 1.9-2.6 3.4-2.8zm1.2 37.6c-1.2-0.3-2.4 0.3-2.8 1.5-0.2 0.5-0.2 1.2 0.1 1.7 0.3 0.5 0.8 0.9 1.3 1.1 0.6 0.2 1.2 0.1 1.7-0.1 0.6-0.3 1-0.8 1.2-1.3q0.1-0.4 0.1-0.7 0-0.6-0.3-1c-0.3-0.6-0.7-1-1.3-1.2zm21.3-77.1c0.6 0.2 1.2 0.2 1.7-0.1 0.6-0.3 1-0.7 1.1-1.3q0.2-0.3 0.2-0.7 0-0.5-0.3-1c-0.3-0.5-0.7-0.9-1.3-1.1-0.6-0.2-1.2-0.2-1.7 0.1-0.5 0.3-0.9 0.7-1.1 1.3-0.2 0.6-0.2 1.2 0.1 1.7 0.3 0.6 0.7 1 1.3 1.1z"/>
					<path fill-rule="evenodd" class="s18" d="m471.2 545.8v45.1l-17.2 17.2v24.4h-1.9v-25.2l17.2-17.2v-43.5l-29-29.1v-63.8l-20.2-20.1v-52.2c-1.4-0.2-2.7-0.9-3.6-2-1.1-1.2-1.6-2.6-1.6-4.2q0-0.2 0-0.4c0.1-1.6 0.8-3.2 2.1-4.3 1.2-1.1 2.8-1.7 4.5-1.6 1.7 0.1 3.2 0.9 4.4 2.1 1.1 1.3 1.6 2.9 1.5 4.6-0.1 3-2.5 5.4-5.4 5.8v51.4l20.1 20.2v63.8l29.1 29zm-50.3-166.2c2.4 0.2 4.5-1.7 4.7-4.1q0-0.2 0-0.3c0-1.1-0.4-2.1-1.1-2.9-0.8-0.9-1.9-1.4-3.1-1.5-1.2-0.1-2.3 0.3-3.2 1.1-0.9 0.8-1.4 1.9-1.5 3-0.1 2.5 1.8 4.6 4.2 4.7z"/>
					<path class="s19" d="m479.9 545.8l-29.1-29v-63.8l-20.1-20.2v-79.7l15.2-15.2v-28.3c1.1-0.3 2-1.2 2.2-2.5 0.3-1.7-0.8-3.3-2.5-3.6-1.8-0.4-3.4 0.8-3.7 2.5-0.3 1.6 0.6 3.1 2.1 3.6v27.6l-15.1 15.1v81.3l20.1 20.1v63.8l29 29.1v43.5l-17.2 17.2v25.2h1.9v-24.4l17.2-17.2z"/>
					<path fill-rule="evenodd" class="s20" d="m364.1 497.3v-0.1zm0 0l30.8 30.8h17.3v106.6h-1.9v-104.7h-16.2l-30.8-30.8h-33.5v3.7h15l0.3 0.3c31.6 30.7 31.6 31.6 31.6 32.1v89.8h-1.8v-89.6c-1.7-2.2-19.1-19.3-30.9-30.7h-14.2v3.1h11.3l27.3 27.3v90.2h-1.9v-89.4l-26.2-26.2h-10.5v2.4l-6.7 3.8 23.2 23.2v90.6h-1.9v-89.8l-23-23-9.6 5.6v67l16.6 16.6v34.1h-1.9v-33.3l-16.6-16.6v-66.8l-6.2 3.6v118.1h-1.9v-118.4l-4.9-2.9v66.4l-16.7 16.6v33.3h-1.8v-34.1l16.6-16.6v-66.7l-18.7-10.7v-6.8h-17l-22.7 22.8-1.3-1.4 23.3-23.2h17.7v-3.8h-17l-22.7 22.8-1.3-1.4 23.3-23.2h17.7v-3.4h-17l-22.7 22.7-1.3-1.3 23.3-23.3h17.8v-2.8h-0.1l-35.1-35.1 1.3-1.3 33.9 33.8v-1.7l-22.6-22.5v-25.1h22.2v15.5q0.1 0 0.1 0.1c1.1 0.3 1.9 1 2.4 2 0.5 1 0.6 2.1 0.3 3.1-0.4 1.1-1.1 1.9-2.1 2.4-1 0.5-2.1 0.6-3.1 0.3-1.1-0.4-1.9-1.1-2.4-2.1q-0.4-0.9-0.4-1.8 0-0.7 0.2-1.3c0.3-1.1 1-1.9 2-2.4q0.6-0.3 1.2-0.4v-13.6h-18.5v22.5l20.6 20.7v-1.7l14.7-8.5v-32.3l-14.9-14.8h-36.4v-1.9h37.2l15.9 16v32l4.1-2.4v-56h-60.6v-1.8h62.4v56.8l4.4-2.5 10.9 6.2v-67.1l8.4-8.5h76.7v78.2h10.5q0.1-0.4 0.2-0.7c0.3-1 1.1-1.9 2-2.4 1-0.5 2.1-0.6 3.2-0.2 1 0.3 1.9 1.1 2.3 2 0.5 1 0.6 2.1 0.3 3.2-0.3 1-1.1 1.9-2.1 2.4-0.9 0.4-2 0.5-3.1 0.2-1-0.3-1.9-1.1-2.4-2.1q-0.1-0.3-0.2-0.6h-12.5v-78.2h-74.1l-7.4 7.4v67.5l14 8.1v2.7h6.6v-33.7q-0.3 0-0.5-0.1c-1.1-0.3-1.9-1.1-2.4-2q-0.5-0.9-0.5-1.9 0-0.6 0.2-1.3c0.4-1 1.1-1.9 2.1-2.4 1-0.5 2.1-0.5 3.1-0.2 1.1 0.3 1.9 1.1 2.4 2 0.5 1 0.6 2.1 0.3 3.2-0.4 1-1.1 1.9-2.1 2.4q-0.4 0.2-0.8 0.3v35.5h-8.4v2.8h10.8l16.9-16.8v-43.5q-0.1 0-0.2-0.1c-1.1-0.3-1.9-1-2.4-2q-0.5-0.9-0.5-1.8 0-0.7 0.2-1.3c0.4-1.1 1.1-1.9 2.1-2.4 1-0.5 2.1-0.6 3.1-0.3 1.1 0.4 1.9 1.1 2.4 2.1 0.5 1 0.6 2.1 0.3 3.1-0.4 1.1-1.1 1.9-2.1 2.4q-0.5 0.3-1 0.4v44.2l-18 17.9h-11.6v1.6h52.2v-60.3l-18.7-18.7h-26.7q0 0.2-0.1 0.4c-0.3 1.1-1.1 1.9-2 2.4-1 0.5-2.1 0.6-3.2 0.3-1-0.4-1.9-1.1-2.3-2.1q-0.5-0.9-0.5-1.8 0-0.7 0.2-1.3c0.4-1.1 1.1-1.9 2.1-2.4 0.9-0.5 2-0.6 3.1-0.2 1 0.3 1.9 1 2.4 2q0.2 0.4 0.3 0.8h27.5l19.8 19.9v62.8h-54.1v3.4zm-29.2-85q0-0.6-0.2-1.1c-0.3-0.5-0.8-0.9-1.3-1.1-0.6-0.2-1.2-0.1-1.8 0.2-0.5 0.2-0.9 0.7-1.1 1.3-0.2 0.5-0.1 1.1 0.2 1.7 0.2 0.5 0.7 0.9 1.3 1.1 0.5 0.2 1.1 0.1 1.7-0.1 0.5-0.3 0.9-0.8 1.1-1.3q0.1-0.4 0.1-0.7zm23 14.2c0.6 0.2 1.2 0.1 1.7-0.2 0.6-0.2 1-0.7 1.1-1.3q0.2-0.3 0.2-0.7 0-0.5-0.3-1c-0.3-0.5-0.7-0.9-1.3-1.1-0.6-0.2-1.2-0.1-1.7 0.1-0.5 0.3-0.9 0.8-1.1 1.3-0.2 0.6-0.2 1.2 0.1 1.8 0.3 0.5 0.7 0.9 1.3 1.1zm-21.4 21.9c0.6 0.2 1.2 0.2 1.7-0.1 0.6-0.3 1-0.7 1.1-1.3q0.1-0.4 0.1-0.7 0-0.5-0.2-1c-0.3-0.6-0.7-1-1.3-1.1-0.6-0.2-1.2-0.2-1.7 0.1-0.5 0.3-0.9 0.7-1.1 1.3-0.2 0.6-0.2 1.2 0.1 1.7 0.3 0.5 0.7 0.9 1.3 1.1zm75.2 27.9c0.3 0.5 0.8 0.9 1.3 1.1 0.6 0.2 1.2 0.2 1.8-0.1 0.5-0.3 0.9-0.8 1.1-1.3q0.1-0.4 0.1-0.7 0-0.5-0.3-1c-0.2-0.6-0.7-1-1.3-1.1-0.5-0.2-1.1-0.2-1.7 0.1-0.5 0.3-0.9 0.7-1.1 1.3-0.2 0.6-0.1 1.2 0.1 1.7zm-136.1-21c-0.6-0.2-1.2-0.1-1.7 0.1-0.5 0.3-0.9 0.8-1.1 1.4-0.2 0.5-0.2 1.1 0.1 1.7 0.3 0.5 0.7 0.9 1.3 1.1 0.6 0.2 1.2 0.1 1.7-0.2 0.6-0.2 1-0.7 1.1-1.3q0.2-0.3 0.2-0.7 0-0.5-0.3-1c-0.3-0.5-0.7-0.9-1.3-1.1zm52.4 27.1l-13.9-8.1h-0.1l-10.9-6.3-24.8 14.4v28.7l23.6 13.6v-26.1q-0.3-0.1-0.6-0.2c-1.1-0.3-1.9-1-2.4-2q-0.5-0.9-0.5-1.9 0-0.6 0.2-1.3c0.4-1 1.1-1.8 2.1-2.3 1-0.5 2.1-0.6 3.1-0.3 1.1 0.4 1.9 1.1 2.4 2.1 0.5 0.9 0.6 2.1 0.2 3.1-0.3 1-1 1.9-2 2.4q-0.3 0.1-0.6 0.2v26.7l24.2-14zm-23.3 12.8q0.1-0.3 0.1-0.7 0-0.5-0.3-1c-0.2-0.5-0.7-0.9-1.3-1.1-0.5-0.2-1.1-0.1-1.7 0.1-0.5 0.3-0.9 0.8-1.1 1.3-0.2 0.6-0.1 1.2 0.1 1.8 0.3 0.5 0.8 0.9 1.3 1.1 0.6 0.2 1.2 0.1 1.8-0.2 0.5-0.2 0.9-0.7 1.1-1.3z"/>
					<path fill-rule="evenodd" class="s21" d="m527.3 395.1h-15c0.1 11.2 0.4 75 0 78.9v72.4h-17.6v50.9l-13.2 13.2v17.3h-1.8v-18.1l13.2-13.2v-52h17.5v-70.7h0.1c0.3-2 0.1-48.7-0.1-79.6v-0.9h17.7l14.5 14.5v18.6h-17.2q-0.1 0.2-0.1 0.3c-0.3 1.1-1.1 1.9-2.1 2.4-0.9 0.5-2 0.6-3.1 0.3-1-0.4-1.9-1.1-2.4-2.1q-0.4-0.9-0.4-1.8 0-0.7 0.2-1.3c0.7-2.2 3-3.3 5.2-2.6 1 0.3 1.9 1 2.4 2q0.2 0.4 0.3 0.9h15.4v-15.9zm-3.7 30.3q0-0.5-0.3-1c-0.2-0.5-0.7-0.9-1.3-1.1-1.1-0.4-2.4 0.2-2.8 1.4-0.2 0.6-0.1 1.2 0.1 1.7 0.3 0.5 0.8 0.9 1.3 1.1 0.6 0.2 1.2 0.2 1.8-0.1 0.5-0.3 0.9-0.7 1.1-1.3q0.1-0.4 0.1-0.7z"/>
					<path class="s22" d="m362.6 287.4l15-15h32.1c0.3 1.4 1.6 2.5 3.1 2.5 1.8 0 3.2-1.4 3.2-3.1 0-1.8-1.4-3.2-3.2-3.2-1.3 0-2.4 0.8-2.9 1.9h-33l-16.2 16.2v33.2h-162.5v1.9h164.4v-34.4z"/>
					<path fill-rule="evenodd" class="s23" d="m243.7 120.3v-1.8h29.3l15.5-15.5v-92.8h-19.6v-53.8h28.9v-22.1h-44.1v-1.9h46v24h23v22.5c1.5 0.3 3.1 0.5 3.7 0.4v-32.8l-38.1-38.2h-37.4v-1.8h38.1l39.3 39.2v34c0 0.4-0.2 0.8-0.5 1-0.9 0.7-3.1 0.5-5.1 0.1v10.7h10.6v26.8l-18.1 18v95.1h11.3l0.3 0.3c30.2 29.4 41.1 40.4 45 44.7 0.6-0.3 1.3-0.4 2-0.2 1.7 0.4 2.8 2.2 2.3 3.9-0.4 1.7-2.1 2.7-3.8 2.3-1.7-0.5-2.8-2.2-2.3-3.9q0.1-0.5 0.4-0.9c-6.5-7-29-29-44.7-44.3h-12.3v-97.7l18-18.1v-24.1h-8.7v16.8h-21.5v93.6l-16.5 16.5zm55.6-110.1h-4.3v93.6l-14.7 14.7h3.6l15.4-15.5c0 0 0-92.8 0-92.8zm-28.6-52v50.1h50.1v-50.1zm4.9 160.3h2l15.5-15.5v-92.8h-2.8v93.6c0 0-14.7 14.7-14.7 14.7z"/>
					<path class="s24" d="m299.8 380.5h86.2l45.2-45.1v-26c1.7-0.8 3-2.5 3-4.5 0-2.6-2.2-4.7-4.8-4.7-2.6 0-4.7 2.1-4.7 4.7 0 2.7 2 4.8 4.6 4.8v24.9l-44 44.1h-86.3l-21.8 21.8h-68.9v1.9h69.6c0 0 21.9-21.9 21.9-21.9z"/>
					<path class="s25" d="m344.1-22.9l-5.2 5.3v26.9l10.8 10.9v113.7l42.1 42.1h17.1c0.3 2.3 2.3 4.2 4.7 4.2 2.6 0 4.8-2.2 4.8-4.8 0-2.6-2.2-4.7-4.8-4.7-2.2 0-4 1.4-4.6 3.4h-16.4l-41-40.9v-113.8l-10.9-10.9v-25.3l5.3-5.3v-34.7l-78.6-78.6-1.3 1.4 78 78z"/>
					<path class="s26" d="m380.8 126q-0.3 0.4-0.4 0.9c-0.4 1.7 0.6 3.4 2.3 3.9 1.7 0.4 3.4-0.6 3.8-2.3 0.5-1.7-0.6-3.5-2.3-3.9-0.7-0.2-1.4-0.1-2 0.2-2.9-2.9-8.1-8.1-9.9-9.8v-254.7h-1.9v255.5l0.3 0.2c3.1 3.1 7.6 7.5 10.1 10z"/>
					<path class="s27" d="m361.9 129l13.8 13.8c-0.5 0.7-0.7 1.5-0.7 2.4 0 2.7 2.1 4.8 4.7 4.8 2.7 0 4.8-2.1 4.8-4.8 0-2.6-2.1-4.7-4.8-4.7-1 0-2 0.3-2.8 0.9l-13.2-13.2v-230l-18.3-18.4v-22.9h-1.9v23.7l18.4 18.4z"/>
					<path class="s28" d="m354.5 249.2h53.6c0.5 2.1 2.4 3.8 4.7 3.8 2.6 0 4.7-2.2 4.7-4.8 0-2.6-2.1-4.7-4.7-4.7-2.4 0-4.3 1.6-4.7 3.8h-54.4l-38.9 38.9h-56.5v1.9h57.3c0 0 38.9-38.9 38.9-38.9z"/>
					<path class="s29" d="m354.2 131.9l36.2 36.2h7.1c0.4 0.9 1.1 1.6 2.1 1.8 1.7 0.5 3.5-0.6 3.9-2.3 0.4-1.7-0.6-3.4-2.3-3.8-1.7-0.5-3.4 0.6-3.9 2.3q0 0 0 0.1h-6.1l-35.1-35.1v-190.3l-32.9-32.9v-51.3h-1.8v52.1l32.8 32.8z"/>
					<path fill-rule="evenodd" class="s30" d="m256.2 251.7h33.5v-25.3c-1.1-0.4-2.1-1-2.9-1.9-1-1.2-1.6-2.6-1.6-4.2q0-0.2 0.1-0.3c0.1-1.7 0.8-3.3 2.1-4.4 1.2-1.1 2.8-1.7 4.5-1.6 3.5 0.2 6.1 3.2 5.9 6.7-0.2 3.3-2.9 5.9-6.2 5.9v26.9h-35.4c0 0 0-1.8 0-1.8zm35.1-27c2.4 0.2 4.5-1.7 4.7-4.1q0-0.2 0-0.3c0-2.3-1.9-4.3-4.2-4.4-1.2-0.1-2.3 0.3-3.2 1.1-0.9 0.8-1.4 1.9-1.5 3.1-0.1 1.1 0.3 2.3 1.1 3.2 0.8 0.8 1.9 1.4 3.1 1.4z"/>
					<path class="s31" d="m408.6 427.3c-1.7 0-3.1-1.4-3.1-3.2 0-1.7 1.4-3.1 3.1-3.1 1.8 0 3.2 1.4 3.2 3.1 0 1.8-1.4 3.2-3.2 3.2z"/>
					<path class="s32" d="m339 305.6c-1.7 0.5-3.5-0.6-3.9-2.3-0.4-1.7 0.7-3.4 2.4-3.8 1.7-0.4 3.4 0.6 3.8 2.3 0.4 1.7-0.6 3.4-2.3 3.8z"/>
					<path class="s33" d="m409.4 439.5c-1.8 0.4-3.5-0.7-3.9-2.4-0.4-1.7 0.7-3.4 2.4-3.8 1.7-0.4 3.4 0.6 3.8 2.4 0.4 1.7-0.6 3.4-2.3 3.8z"/>
					<path class="s34" d="m471.4 402.9c-1.7 0-3.1-1.5-3.1-3.2 0-1.8 1.4-3.2 3.1-3.2 1.8 0 3.2 1.4 3.2 3.2 0 1.7-1.4 3.2-3.2 3.2z"/>
					<path class="s35" d="m471.4 416.5c-1.7 0-3.1-1.4-3.1-3.1 0-1.8 1.4-3.2 3.1-3.2 1.8 0 3.2 1.4 3.2 3.2 0 1.7-1.4 3.1-3.2 3.1z"/>
					<path class="s36" d="m409.2 454.9c-1.8 0.2-3.4-0.9-3.7-2.7-0.3-1.7 0.9-3.3 2.7-3.6 1.7-0.3 3.3 0.9 3.6 2.6 0.3 1.8-0.9 3.4-2.6 3.7z"/>
					<path class="s37" d="m329.2 370.5c-1.7 0.4-3.5-0.7-3.9-2.4-0.4-1.7 0.7-3.4 2.4-3.8 1.7-0.4 3.4 0.6 3.8 2.3 0.4 1.7-0.6 3.5-2.3 3.9z"/>
					<path class="s38" d="m313.6 370.5c-1.8 0.2-3.4-0.9-3.7-2.7-0.2-1.7 0.9-3.3 2.7-3.6 1.7-0.3 3.3 0.9 3.6 2.6 0.3 1.8-0.9 3.4-2.6 3.7z"/>
					<path fill-rule="evenodd" class="s39" d="m473.6 306c0.3-1.7 2-2.9 3.7-2.6 1.7 0.4 2.9 2 2.5 3.7-0.2 1.1-0.9 2-1.8 2.4v25.3l-12.3 12.2v25.9q0.2 0 0.3 0c1.1 0.4 1.9 1.1 2.4 2.1 0.5 1 0.6 2.1 0.2 3.1-0.7 2.2-3 3.3-5.1 2.6-1.1-0.3-1.9-1-2.4-2q-0.5-0.9-0.5-1.9 0-0.6 0.2-1.2c0.5-1.5 1.7-2.5 3.1-2.8v-26.5l12.2-12.3v-24.3c-1.7-0.3-2.8-2-2.5-3.7zm-8.2 68.7c-1.1-0.4-2.4 0.3-2.8 1.4-0.2 0.6-0.1 1.2 0.1 1.8 0.3 0.5 0.8 0.9 1.3 1.1 0.6 0.2 1.2 0.1 1.7-0.2 0.6-0.2 1-0.7 1.2-1.3q0.1-0.3 0.1-0.7 0-0.5-0.3-1c-0.2-0.5-0.7-0.9-1.3-1.1z"/>
					<path class="s40" d="m412.1 232.4c1.7 0.4 3.4-0.6 3.8-2.3 0.4-1.7-0.6-3.4-2.3-3.8-1.5-0.4-3 0.3-3.6 1.7-6.2-0.1-20.5-0.3-34.8-0.4-38.4-0.3-39 0.3-39.5 0.7l-43.7 43.7h-32.4v1.9h33.2l44.1-44.1c3.4-0.7 44-0.4 72.8 0.1 0.2 1.2 1.1 2.2 2.4 2.5z"/>
					<path class="s41" d="m413.6 186.8c-1.6-0.4-3.1 0.5-3.7 1.9h-46.9l-41.2-41.2h-66.6v1.9h65.9l41.1 41.2h47.6c0.2 1.1 1.1 2 2.3 2.3 1.7 0.5 3.4-0.6 3.8-2.3 0.4-1.7-0.6-3.4-2.3-3.8z"/>
					<path class="s42" d="m412.1 203.8c1.7 0.4 3.4-0.6 3.8-2.3 0.4-1.7-0.6-3.4-2.3-3.8-1.5-0.4-3 0.4-3.7 1.8h-55.4l-38.9-38.9h-57.2v1.9h56.5l38.8 38.8h56c0.3 1.2 1.1 2.2 2.4 2.5z"/>
					<path class="s43" d="m376.6 61.8c1.7 0.4 3.5-0.6 3.9-2.3 0.3-1.5-0.3-2.9-1.5-3.6v-73.3l18-18.1v-110.4h-1.9v109.7l-18 18v73.7c-1.3 0.2-2.4 1.1-2.8 2.4-0.4 1.7 0.6 3.4 2.3 3.9z"/>
					<path class="s44" d="m356.5 211.2q0 0-0.1 0c-14.9 0-18.7-0.2-19.5-0.4l-44.1-44.1h-33.2v1.8h32.4l43.7 43.7c0.4 0.5 0.8 0.9 20.9 0.9 0.3 0.9 1.1 1.6 2.1 1.9 1.7 0.4 3.5-0.6 3.9-2.3 0.4-1.7-0.6-3.4-2.3-3.9-1.7-0.4-3.4 0.7-3.9 2.4z"/>
					<path class="s45" d="m378.1 235.7c-41.3-0.4-41.9 0.2-42.4 0.7l-43.7 43.7h-32.4v1.9h33.2l44.1-44.1c1.1-0.2 7.4-0.6 41.2-0.3 0.4 1.3 1.6 2.2 3 2.2 1.8 0 3.2-1.4 3.2-3.2 0-1.7-1.4-3.1-3.2-3.1-1.4 0-2.6 0.9-3 2.2z"/>
					<path class="s46" d="m413.6 215.1c-2.2 0-4.1 1.6-4.6 3.7-28.8 0.4-68.7 0.8-72.1 0.1l-44.1-44.2h-33.2v1.9h32.4l43.7 43.7c0.5 0.5 1.1 1.1 39.5 0.8 13.5-0.1 27.1-0.3 33.7-0.4 0.4 2.2 2.4 3.9 4.7 3.9 2.6 0 4.8-2.1 4.8-4.7 0-2.7-2.2-4.8-4.8-4.8z"/>
					<path class="s47" d="m378.9 89.3c-0.3 1.7 0.8 3.4 2.6 3.7 1.7 0.4 3.3-0.8 3.7-2.5 0.3-1.7-0.8-3.4-2.5-3.7-1.8-0.3-3.4 0.8-3.8 2.5z"/>
					<path class="s48" d="m390 87.3c-1.4 1-1.7 3-0.7 4.4 1 1.5 3 1.8 4.4 0.8 1.4-1 1.8-3 0.8-4.4-1.1-1.4-3-1.8-4.5-0.8z"/>
					<path class="s49" d="m407.5 10.8c-1.4 1-1.8 3-0.8 4.4 1 1.5 3 1.8 4.4 0.8 1.5-1 1.8-3 0.8-4.4-1-1.4-3-1.8-4.4-0.8z"/>
				</g>
			</g>
		</g>
		<path class="s50" d="m257.3 454.9c-209.8-123.6-173.2-312.5-173.2-312.5 71.7 0 173.2-82.9 173.2-82.9"/>
		<path fill-rule="evenodd" class="s51" d="m257.3 499.8q0 0 0 0zm-5.6-3.3c-56.9-33.5-103.2-74-137.6-120.3-27.7-37.2-47.7-78.2-59.6-121.8-20.3-74.5-9.9-130.5-9.4-132.8l1.7-9h9.1c78.5 0 193.3-92.9 194.4-93.8l7-5.7 7 5.7c1.2 0.9 116 93.8 194.4 93.8h9.2l1.7 9c0.5 2.3 10.9 58.3-9.4 132.8-11.9 43.6-32 84.6-59.6 121.8-34.4 46.3-80.7 86.8-137.6 120.3 0 0-5.7 3.3-5.7 3.3zm-186-362.1c-2 17.9-4.3 61.8 10.5 115.2 25.2 91.6 86.2 167.1 181.2 224.5 118.6-71.8 164.1-162 181.4-225.5 14.5-53.2 12.2-96.5 10.3-114.2-35-2.6-78-19.2-128-49.4-29.2-17.6-52.6-34.9-63.7-43.5-11.2 8.6-34.6 25.9-63.8 43.5-50 30.2-93 46.8-127.9 49.4z"/>
		<g>
			<path class="s51" d="m257.3 280.6c-28.6 0-51.7-23.1-51.7-51.7 0-28.7 23.1-51.8 51.7-51.8 28.7 0 51.8 23.1 51.8 51.8 0 28.6-23.1 51.7-51.8 51.7z"/>
			<path class="s51" d="m257.3 213.4c14.2 0 25.6 11.4 25.6 25.5v71.4c0 14.1-11.4 25.5-25.6 25.5-14.1 0-25.5-11.4-25.5-25.5v-71.4c0-14.1 11.4-25.5 25.5-25.5z"/>
		</g>
	</g>
</svg>