<?xml version="1.0" encoding="UTF-8"?>
<svg id="Extras" xmlns="http://www.w3.org/2000/svg" xmlns:xlink="http://www.w3.org/1999/xlink" viewBox="0 0 1024 1024">
  <defs>
    <style>
      .cls-1 {
        fill: url(#Degradado_sin_nombre_8-22);
      }

      .cls-1, .cls-2, .cls-3, .cls-4, .cls-5, .cls-6, .cls-7, .cls-8, .cls-9, .cls-10, .cls-11, .cls-12, .cls-13, .cls-14, .cls-15, .cls-16, .cls-17, .cls-18, .cls-19, .cls-20, .cls-21, .cls-22, .cls-23, .cls-24, .cls-25, .cls-26, .cls-27, .cls-28, .cls-29, .cls-30, .cls-31, .cls-32, .cls-33, .cls-34, .cls-35, .cls-36, .cls-37, .cls-38, .cls-39, .cls-40, .cls-41, .cls-42, .cls-43, .cls-44, .cls-45, .cls-46, .cls-47, .cls-48, .cls-49, .cls-50, .cls-51, .cls-52, .cls-53 {
        stroke-width: 0px;
      }

      .cls-2 {
        fill: url(#Degradado_sin_nombre_8-2);
      }

      .cls-3 {
        fill: #b5ffa6;
      }

      .cls-4 {
        fill: url(#Degradado_sin_nombre_8-46);
      }

      .cls-5 {
        fill: url(#Degradado_sin_nombre_8-39);
      }

      .cls-6 {
        fill: url(#Degradado_sin_nombre_8-7);
      }

      .cls-7 {
        fill: url(#Degradado_sin_nombre_8-23);
      }

      .cls-8 {
        fill: url(#Degradado_sin_nombre_8);
      }

      .cls-9 {
        fill: url(#Degradado_sin_nombre_8-11);
      }

      .cls-10 {
        fill: url(#Degradado_sin_nombre_8-34);
      }

      .cls-11 {
        fill: url(#Degradado_sin_nombre_8-8);
      }

      .cls-12 {
        fill: url(#Degradado_sin_nombre_8-4);
      }

      .cls-13 {
        fill: url(#Degradado_sin_nombre_8-9);
      }

      .cls-14 {
        fill: #8ad379;
      }

      .cls-15 {
        fill: url(#Degradado_sin_nombre_3);
      }

      .cls-16 {
        fill: url(#Degradado_sin_nombre_8-21);
      }

      .cls-17 {
        fill: url(#Degradado_sin_nombre_8-29);
      }

      .cls-18 {
        fill: url(#Degradado_sin_nombre_8-28);
      }

      .cls-19 {
        fill: none;
      }

      .cls-20 {
        fill: #234c17;
      }

      .cls-21 {
        fill: url(#Degradado_sin_nombre_8-24);
      }

      .cls-22 {
        fill: url(#Degradado_sin_nombre_8-27);
      }

      .cls-23 {
        fill: url(#Degradado_sin_nombre_8-35);
      }

      .cls-24 {
        fill: url(#Degradado_sin_nombre_8-30);
      }

      .cls-25 {
        fill: url(#Degradado_sin_nombre_8-17);
      }

      .cls-26 {
        fill: url(#Degradado_sin_nombre_8-48);
      }

      .cls-27 {
        fill: url(#Degradado_sin_nombre_8-41);
      }

      .cls-28 {
        fill: url(#Degradado_sin_nombre_8-16);
      }

      .cls-29 {
        fill: url(#Degradado_sin_nombre_8-31);
      }

      .cls-30 {
        fill: url(#Degradado_sin_nombre_8-19);
      }

      .cls-31 {
        fill: url(#Degradado_sin_nombre_8-13);
      }

      .cls-32 {
        fill: url(#Degradado_sin_nombre_8-38);
      }

      .cls-33 {
        fill: url(#Degradado_sin_nombre_8-3);
      }

      .cls-34 {
        fill: url(#Degradado_sin_nombre_8-18);
      }

      .cls-35 {
        fill: url(#Degradado_sin_nombre_8-5);
      }

      .cls-36 {
        fill: url(#Degradado_sin_nombre_8-47);
      }

      .cls-37 {
        fill: url(#Degradado_sin_nombre_8-25);
      }

      .cls-38 {
        fill: url(#Degradado_sin_nombre_8-10);
      }

      .cls-39 {
        fill: url(#Degradado_sin_nombre_8-32);
      }

      .cls-54 {
        clip-path: url(#clippath);
      }

      .cls-40 {
        fill: url(#Degradado_sin_nombre_8-20);
      }

      .cls-41 {
        fill: url(#Degradado_sin_nombre_8-43);
      }

      .cls-42 {
        fill: url(#Degradado_sin_nombre_8-45);
      }

      .cls-43 {
        fill: url(#Degradado_sin_nombre_8-26);
      }

      .cls-44 {
        fill: url(#Degradado_sin_nombre_8-36);
      }

      .cls-45 {
        fill: url(#Degradado_sin_nombre_8-33);
      }

      .cls-46 {
        fill: url(#Degradado_sin_nombre_8-37);
      }

      .cls-47 {
        fill: url(#Degradado_sin_nombre_8-42);
      }

      .cls-48 {
        fill: url(#Degradado_sin_nombre_8-14);
      }

      .cls-49 {
        fill: url(#Degradado_sin_nombre_8-6);
      }

      .cls-50 {
        fill: url(#Degradado_sin_nombre_8-12);
      }

      .cls-51 {
        fill: url(#Degradado_sin_nombre_8-40);
      }

      .cls-52 {
        fill: url(#Degradado_sin_nombre_8-15);
      }

      .cls-53 {
        fill: url(#Degradado_sin_nombre_8-44);
      }
    </style>
    <clipPath id="clippath">
      <path class="cls-19" d="m512,929.41C70.58,669.43,147.55,271.99,147.55,271.99c150.81,0,364.45-174.37,364.45-174.37,0,0,213.64,174.37,364.45,174.37,0,0,76.97,397.44-364.45,657.42Z"/>
    </clipPath>
    <linearGradient id="Degradado_sin_nombre_8" data-name="Degradado sin nombre 8" x1="465.43" y1="49.03" x2="1053.01" y2="49.03" gradientUnits="userSpaceOnUse">
      <stop offset="0" stop-color="#b5ffa6"/>
      <stop offset="1" stop-color="#8ad379"/>
    </linearGradient>
    <linearGradient id="Degradado_sin_nombre_8-2" data-name="Degradado sin nombre 8" x1="465.43" y1="-23" x2="1053.01" y2="-23" xlink:href="#Degradado_sin_nombre_8"/>
    <linearGradient id="Degradado_sin_nombre_8-3" data-name="Degradado sin nombre 8" x1="465.43" y1="617.82" x2="1053.01" y2="617.82" xlink:href="#Degradado_sin_nombre_8"/>
    <linearGradient id="Degradado_sin_nombre_8-4" data-name="Degradado sin nombre 8" x1="465.43" y1="642.7" x2="1053.01" y2="642.7" xlink:href="#Degradado_sin_nombre_8"/>
    <linearGradient id="Degradado_sin_nombre_8-5" data-name="Degradado sin nombre 8" x1="465.43" y1="408.25" x2="1053.01" y2="408.25" xlink:href="#Degradado_sin_nombre_8"/>
    <linearGradient id="Degradado_sin_nombre_8-6" data-name="Degradado sin nombre 8" x1="465.43" y1="558.34" x2="1053.01" y2="558.34" xlink:href="#Degradado_sin_nombre_8"/>
    <linearGradient id="Degradado_sin_nombre_8-7" data-name="Degradado sin nombre 8" x1="465.43" y1="708.45" x2="1053.01" y2="708.45" xlink:href="#Degradado_sin_nombre_8"/>
    <linearGradient id="Degradado_sin_nombre_8-8" data-name="Degradado sin nombre 8" x1="465.43" y1="-19.83" x2="1053.01" y2="-19.83" xlink:href="#Degradado_sin_nombre_8"/>
    <linearGradient id="Degradado_sin_nombre_8-9" data-name="Degradado sin nombre 8" x1="465.43" y1="-19.96" y2="-19.96" xlink:href="#Degradado_sin_nombre_8"/>
    <linearGradient id="Degradado_sin_nombre_8-10" data-name="Degradado sin nombre 8" x1="465.43" y1="936.89" x2="1053.01" y2="936.89" xlink:href="#Degradado_sin_nombre_8"/>
    <linearGradient id="Degradado_sin_nombre_8-11" data-name="Degradado sin nombre 8" x1="465.43" y1="692.34" x2="1053.01" y2="692.34" xlink:href="#Degradado_sin_nombre_8"/>
    <linearGradient id="Degradado_sin_nombre_8-12" data-name="Degradado sin nombre 8" x1="465.43" y1="1065.63" x2="1053.01" y2="1065.63" xlink:href="#Degradado_sin_nombre_8"/>
    <linearGradient id="Degradado_sin_nombre_8-13" data-name="Degradado sin nombre 8" x1="465.43" y1="25.82" x2="1053.01" y2="25.82" xlink:href="#Degradado_sin_nombre_8"/>
    <linearGradient id="Degradado_sin_nombre_8-14" data-name="Degradado sin nombre 8" x1="465.43" y1="204.94" x2="1053.01" y2="204.94" xlink:href="#Degradado_sin_nombre_8"/>
    <linearGradient id="Degradado_sin_nombre_8-15" data-name="Degradado sin nombre 8" x1="465.43" y1="723.24" x2="1053.01" y2="723.24" xlink:href="#Degradado_sin_nombre_8"/>
    <linearGradient id="Degradado_sin_nombre_8-16" data-name="Degradado sin nombre 8" x1="465.43" y1="793.72" x2="1053.01" y2="793.72" xlink:href="#Degradado_sin_nombre_8"/>
    <linearGradient id="Degradado_sin_nombre_8-17" data-name="Degradado sin nombre 8" x1="465.43" y1="1025.81" y2="1025.81" xlink:href="#Degradado_sin_nombre_8"/>
    <linearGradient id="Degradado_sin_nombre_8-18" data-name="Degradado sin nombre 8" x1="465.43" y1="956.9" x2="1053.01" y2="956.9" xlink:href="#Degradado_sin_nombre_8"/>
    <linearGradient id="Degradado_sin_nombre_8-19" data-name="Degradado sin nombre 8" x1="465.66" y1="1068.11" x2="1053.23" y2="1068.11" xlink:href="#Degradado_sin_nombre_8"/>
    <linearGradient id="Degradado_sin_nombre_8-20" data-name="Degradado sin nombre 8" x1="465.43" y1="1046.53" x2="1053.01" y2="1046.53" xlink:href="#Degradado_sin_nombre_8"/>
    <linearGradient id="Degradado_sin_nombre_8-21" data-name="Degradado sin nombre 8" x1="465.43" y1="593.49" y2="593.49" xlink:href="#Degradado_sin_nombre_8"/>
    <linearGradient id="Degradado_sin_nombre_8-22" data-name="Degradado sin nombre 8" x1="465.43" y1="66.08" x2="1053.01" y2="66.08" xlink:href="#Degradado_sin_nombre_8"/>
    <linearGradient id="Degradado_sin_nombre_8-23" data-name="Degradado sin nombre 8" x1="465.43" y1="711.49" x2="1053.01" y2="711.49" xlink:href="#Degradado_sin_nombre_8"/>
    <linearGradient id="Degradado_sin_nombre_8-24" data-name="Degradado sin nombre 8" x1="465.43" y1="19.64" y2="19.64" xlink:href="#Degradado_sin_nombre_8"/>
    <linearGradient id="Degradado_sin_nombre_8-25" data-name="Degradado sin nombre 8" x1="465.43" y1="-36.75" x2="1053.01" y2="-36.75" xlink:href="#Degradado_sin_nombre_8"/>
    <linearGradient id="Degradado_sin_nombre_8-26" data-name="Degradado sin nombre 8" x1="465.43" y1="-20.21" x2="1053.01" y2="-20.21" xlink:href="#Degradado_sin_nombre_8"/>
    <linearGradient id="Degradado_sin_nombre_8-27" data-name="Degradado sin nombre 8" x1="465.43" y1="531.58" x2="1053.01" y2="531.58" xlink:href="#Degradado_sin_nombre_8"/>
    <linearGradient id="Degradado_sin_nombre_8-28" data-name="Degradado sin nombre 8" x1="465.43" y1=".52" x2="1053.01" y2=".52" xlink:href="#Degradado_sin_nombre_8"/>
    <linearGradient id="Degradado_sin_nombre_8-29" data-name="Degradado sin nombre 8" x1="465.43" y1="464.32" x2="1053.01" y2="464.32" xlink:href="#Degradado_sin_nombre_8"/>
    <linearGradient id="Degradado_sin_nombre_8-30" data-name="Degradado sin nombre 8" x1="465.43" y1="864.78" x2="1053.01" y2="864.78" xlink:href="#Degradado_sin_nombre_8"/>
    <linearGradient id="Degradado_sin_nombre_8-31" data-name="Degradado sin nombre 8" x1="465.43" y1="608.96" x2="1053.01" y2="608.96" gradientTransform="translate(158.16 -140.44) rotate(13.28)" xlink:href="#Degradado_sin_nombre_8"/>
    <linearGradient id="Degradado_sin_nombre_8-32" data-name="Degradado sin nombre 8" x1="465.43" y1="890.47" x2="1053.01" y2="890.47" gradientTransform="translate(226.8 -166.94) rotate(13.28)" xlink:href="#Degradado_sin_nombre_8"/>
    <linearGradient id="Degradado_sin_nombre_8-33" data-name="Degradado sin nombre 8" x1="465.43" y1="813.31" x2="1053.01" y2="813.31" xlink:href="#Degradado_sin_nombre_8"/>
    <linearGradient id="Degradado_sin_nombre_8-34" data-name="Degradado sin nombre 8" x1="465.43" y1="842.08" x2="1053.01" y2="842.08" xlink:href="#Degradado_sin_nombre_8"/>
    <linearGradient id="Degradado_sin_nombre_8-35" data-name="Degradado sin nombre 8" x1="465.43" y1="922.84" x2="1053.01" y2="922.84" gradientTransform="translate(158.54 -121.08) rotate(9.22)" xlink:href="#Degradado_sin_nombre_8"/>
    <linearGradient id="Degradado_sin_nombre_8-36" data-name="Degradado sin nombre 8" x1="465.43" y1="745.3" x2="1053.01" y2="745.3" gradientTransform="translate(188.93 -132.06) rotate(13.28)" xlink:href="#Degradado_sin_nombre_8"/>
    <linearGradient id="Degradado_sin_nombre_8-37" data-name="Degradado sin nombre 8" x1="465.43" y1="745.3" x2="1053.01" y2="745.3" gradientTransform="translate(127.51 -91.17) rotate(9.22)" xlink:href="#Degradado_sin_nombre_8"/>
    <linearGradient id="Degradado_sin_nombre_8-38" data-name="Degradado sin nombre 8" x1="465.43" y1="692.34" x2="1053.01" y2="692.34" xlink:href="#Degradado_sin_nombre_8"/>
    <linearGradient id="Degradado_sin_nombre_8-39" data-name="Degradado sin nombre 8" x1="465.43" y1="498.51" x2="1053.01" y2="498.51" xlink:href="#Degradado_sin_nombre_8"/>
    <linearGradient id="Degradado_sin_nombre_8-40" data-name="Degradado sin nombre 8" x1="465.43" y1="330.75" x2="1053.01" y2="330.75" xlink:href="#Degradado_sin_nombre_8"/>
    <linearGradient id="Degradado_sin_nombre_8-41" data-name="Degradado sin nombre 8" x1="465.43" y1="355.93" x2="1053.01" y2="355.93" xlink:href="#Degradado_sin_nombre_8"/>
    <linearGradient id="Degradado_sin_nombre_8-42" data-name="Degradado sin nombre 8" x1="465.43" y1="-115.88" x2="1053.01" y2="-115.88" xlink:href="#Degradado_sin_nombre_8"/>
    <linearGradient id="Degradado_sin_nombre_8-43" data-name="Degradado sin nombre 8" x1="465.43" y1="374.07" x2="1053.01" y2="374.07" xlink:href="#Degradado_sin_nombre_8"/>
    <linearGradient id="Degradado_sin_nombre_8-44" data-name="Degradado sin nombre 8" x1="465.43" y1="514.69" x2="1053.01" y2="514.69" xlink:href="#Degradado_sin_nombre_8"/>
    <linearGradient id="Degradado_sin_nombre_8-45" data-name="Degradado sin nombre 8" x1="465.43" y1="392.57" y2="392.57" xlink:href="#Degradado_sin_nombre_8"/>
    <linearGradient id="Degradado_sin_nombre_8-46" data-name="Degradado sin nombre 8" x1="465.43" y1="161.67" x2="1053.01" y2="161.67" xlink:href="#Degradado_sin_nombre_8"/>
    <linearGradient id="Degradado_sin_nombre_8-47" data-name="Degradado sin nombre 8" x1="465.43" y1="161.67" x2="1053" y2="161.67" xlink:href="#Degradado_sin_nombre_8"/>
    <linearGradient id="Degradado_sin_nombre_8-48" data-name="Degradado sin nombre 8" x1="465.43" y1=".73" x2="1053" y2=".73" xlink:href="#Degradado_sin_nombre_8"/>
    <linearGradient id="Degradado_sin_nombre_3" data-name="Degradado sin nombre 3" x1="142.4" y1="513.52" x2="512" y2="513.52" gradientUnits="userSpaceOnUse">
      <stop offset="0" stop-color="#b5ffa6"/>
      <stop offset="1" stop-color="#8ad379"/>
    </linearGradient>
  </defs>
  <path class="cls-3" d="m512,996.98C-1.14,694.76,88.34,232.75,88.34,232.75c175.31,0,423.66-202.7,423.66-202.7,0,0,248.35,202.7,423.66,202.7,0,0,89.48,462.01-423.66,764.23Z"/>
  <path class="cls-14" d="m876.45,271.99l48.25-20.67s131.48,416.96-412.7,745.66v-121.89l364.45-603.1Z"/>
  <path class="cls-3" d="m512,929.41C70.58,669.43,147.55,271.99,147.55,271.99c150.81,0,364.45-174.37,364.45-174.37,0,0,213.64,174.37,364.45,174.37,0,0,76.97,397.44-364.45,657.42Z"/>
  <g class="cls-54">
    <g>
      <path class="cls-8" d="m908.77,43.08V-85.67c1.41-1.73,8.02-8.2,14.56-14.41,1.32.82,2.87,1.3,4.54,1.3,4.76,0,8.64-3.88,8.64-8.64s-3.88-8.64-8.64-8.64-8.64,3.88-8.64,8.64c0,1.68.49,3.24,1.32,4.57-15.7,14.85-15.71,15.64-15.71,16.62V41.46l-40.38,40.38v119.05c-3.09.58-5.44,3.29-5.44,6.55,0,3.69,2.99,6.68,6.68,6.68s6.68-2.99,6.68-6.68c0-2.73-1.64-5.07-3.99-6.11v-117.87l40.38-40.38Zm19.1-155.21c2.6,0,4.71,2.11,4.71,4.71s-2.11,4.71-4.71,4.71-4.71-2.11-4.71-4.71,2.11-4.71,4.71-4.71Z"/>
      <path class="cls-2" d="m888.82,82v102.33l43.16,43.16v52.15c-3.01.65-5.27,3.32-5.27,6.52,0,3.69,2.99,6.68,6.68,6.68s6.68-2.99,6.68-6.68c0-2.8-1.72-5.18-4.16-6.18v-54.12l-43.16-43.16v-99.08l68.98-68.98v-.81c.01-.88.53-88.5.8-175.1.16-50.87.19-91.43.11-120.57-.16-56.19-.38-56.28-2.08-56.99l-2.17.43,1.4,1.4-.56,1.85c-.79-.24-1.2-.9-1.28-1.29,1.51,7.29.57,231.27-.14,349.42l-68.99,69Z"/>
      <path class="cls-33" d="m685.35,676.13c2.61,1.43,5.62,1.75,8.48.92,4.02-1.18,6.87-4.44,7.73-8.26h59.75v-70.53l31.22-31.22h40.33c.92,2.59,3.36,4.45,6.27,4.45,3.69,0,6.68-2.99,6.68-6.68s-2.99-6.68-6.68-6.68c-3.1,0-5.68,2.12-6.43,4.98h-41.79l-33.52,33.52v68.23h-55.67c-.07-.55-.18-1.1-.34-1.64-1.73-5.89-7.93-9.28-13.83-7.56-2.86.84-5.21,2.74-6.64,5.35-.91,1.66-1.37,3.48-1.37,5.33,0,1.05.15,2.11.46,3.15.84,2.85,2.74,5.21,5.35,6.64Zm-.99-13.24c.92-1.69,2.45-2.92,4.3-3.46,3.82-1.12,7.84,1.08,8.96,4.89.2.67.29,1.36.29,2.03,0,3.12-2.04,6.01-5.19,6.93-3.82,1.12-7.84-1.08-8.95-4.89-.54-1.85-.33-3.8.59-5.49Z"/>
      <path class="cls-12" d="m502.68,668.56h-58.19v3.92h56.57l26.97,26.97h244.56v-66.38l38.58-38.58h21.59c.82,2.76,3.35,4.78,6.37,4.78,3.69,0,6.68-2.99,6.68-6.68s-2.99-6.68-6.68-6.68c-2.98,0-5.47,1.96-6.33,4.65h-23.26l-40.88,40.88v64.08h-239.01l-26.97-26.97Z"/>
      <path class="cls-35" d="m634.4,414.93c-3.57-.21-6.9,1.03-9.42,3.21l-43.03-43.03-57.39.66.05,3.92,55.74-.64,42.07,42.07c-1.15,1.83-1.87,3.96-2.01,6.26-.02.26-.02.53-.02.79,0,3.25,1.17,6.34,3.35,8.78,2.35,2.64,5.59,4.21,9.12,4.42,3.53.21,6.93-.97,9.57-3.32,2.64-2.35,4.21-5.59,4.42-9.12.44-7.32-5.16-13.57-12.45-13.99Zm8.53,13.76c-.3,5.13-4.72,9.06-9.85,8.76-2.48-.15-4.76-1.25-6.42-3.11-1.66-1.86-2.48-4.24-2.34-6.74.3-5.13,4.72-9.06,9.85-8.76,4.95.29,8.78,4.41,8.78,9.3,0,.18,0,.37-.02.55Z"/>
      <path class="cls-49" d="m832.76,519.3c.82,2.76,3.35,4.78,6.37,4.78,3.69,0,6.68-2.99,6.68-6.68s-2.99-6.68-6.68-6.68c-2.98,0-5.47,1.96-6.33,4.65h-100.09l-86.65,86.64h-138.47v3.92h140.1l86.65-86.64h98.43Z"/>
      <path class="cls-6" d="m836.53,665.27c1.82,1.1,3.89,1.76,6.08,1.88,7.29.43,13.57-5.16,13.99-12.45.21-3.54-.97-6.93-3.32-9.57-2.35-2.64-5.59-4.21-9.12-4.42-3.53-.21-6.93.97-9.58,3.33-2.64,2.35-4.21,5.59-4.42,9.12-.02.26-.02.53-.02.79,0,3.25,1.17,6.34,3.35,8.78,0,0,0,0,.01.01l-55.84,55.84h-191.76l-53.7,53.7h-121.06v3.92h122.69l53.7-53.7h191.76l57.24-57.24Zm-2.45-11.88c.15-2.48,1.25-4.76,3.11-6.42,1.86-1.66,4.25-2.49,6.74-2.34,2.48.15,4.76,1.25,6.42,3.11,1.53,1.72,2.36,3.9,2.36,6.18,0,.18,0,.37-.02.56-.3,5.13-4.72,9.06-9.85,8.76-5.13-.3-9.03-4.68-8.76-9.85Z"/>
      <path class="cls-11" d="m822.45,239.59l45.6,45.6c-.39.63-.71,1.33-.88,2.1-.78,3.6,1.51,7.16,5.11,7.94s7.16-1.51,7.94-5.11c.78-3.6-1.51-7.16-5.11-7.94-1.43-.31-2.85-.12-4.1.43l-44.64-44.64V84.93l42.34-42.34V-91.63l61.06-61.06v-94.89l-36.17-36.17v-51.3h-3.92v52.92l36.17,36.17v91.64l-61.06,61.06V40.97l-42.34,42.34v156.28Z"/>
      <path class="cls-13" d="m944.16-154.31l-61.06,61.06V40.97l-42.34,42.34v156.28l45.72,45.72c-.51.94-.82,2-.82,3.15,0,3.69,2.99,6.68,6.68,6.68s6.68-2.99,6.68-6.68-2.99-6.68-6.68-6.68c-1.11,0-2.14.3-3.06.78l-44.59-44.59V84.93l42.34-42.34V-91.63l61.06-61.06v-94.89l-36.17-36.17v-51.3h-3.92v52.92l36.17,36.17v91.64Z"/>
      <path class="cls-38" d="m993.55,1059.11c.14.87.41,1.72.82,2.53,1.04,2.06,2.83,3.58,5.02,4.3,2.19.72,4.53.54,6.59-.51,2.06-1.04,3.59-2.83,4.3-5.02.72-2.19.54-4.54-.51-6.59-1.04-2.06-2.83-3.59-5.02-4.3-2.19-.72-4.53-.54-6.59.51-2.06,1.04-3.59,2.83-4.3,5.02-.01.04-.02.09-.03.14h-57.92v-130.29l-44.47-44.47v-56.01c2.83-.68,5.25-2.75,6.22-5.71.72-2.19.54-4.53-.51-6.59-1.04-2.06-2.83-3.58-5.02-4.3-4.53-1.48-9.41,1-10.89,5.53-.29.88-.43,1.79-.43,2.69,0,1.34.32,2.67.94,3.9,1.04,2.06,2.83,3.59,5.02,4.3.25.08.5.15.75.2v57.61l44.47,44.47v132.59h61.56Zm4.04-2.84c.39-1.2,1.23-2.17,2.35-2.74,1.12-.57,2.4-.67,3.6-.28,1.2.39,2.17,1.23,2.74,2.35.34.67.51,1.4.51,2.13,0,.49-.08.99-.24,1.47-.39,1.2-1.23,2.17-2.35,2.74-1.12.57-2.4.67-3.6.28-1.2-.39-2.17-1.23-2.74-2.35-.57-1.13-.67-2.41-.28-3.6Zm-112.34-238.11c-.57-1.12-.67-2.4-.28-3.6.81-2.47,3.48-3.82,5.95-3.02,1.2.39,2.17,1.23,2.74,2.35.34.67.51,1.4.51,2.13,0,.49-.08.99-.24,1.47-.39,1.2-1.23,2.17-2.35,2.74-1.12.57-2.4.67-3.6.28-1.2-.39-2.17-1.23-2.74-2.35Z"/>
      <path class="cls-9" d="m920.28,700.96v55.81c-3.02.55-5.65,2.7-6.67,5.81-.29.88-.43,1.79-.43,2.69,0,1.34.32,2.67.94,3.9,1.04,2.06,2.83,3.59,5.02,4.3,4.53,1.48,9.42-1,10.9-5.53.72-2.2.54-4.53-.51-6.59-1.04-2.06-2.83-3.58-5.02-4.3-.1-.03-.2-.05-.3-.08v-54.39l25.78-25.78.04-.75c.22-3.79.09-38.81.03-52.4,2.11-.81,3.77-2.65,4.19-5.04.65-3.63-1.77-7.1-5.4-7.74-3.63-.65-7.1,1.77-7.74,5.4-.62,3.5,1.61,6.82,5.03,7.64.05,13.02.17,45.01,0,51.19l-25.86,25.86Zm5.74,62.18c.34.67.51,1.4.51,2.13,0,.49-.08.99-.24,1.47-.39,1.2-1.23,2.17-2.35,2.74-1.12.57-2.4.67-3.6.28-1.2-.39-2.17-1.23-2.74-2.35-.57-1.12-.67-2.4-.28-3.6.81-2.47,3.48-3.82,5.95-3.02,1.2.39,2.17,1.23,2.74,2.35Z"/>
      <path class="cls-50" d="m1031.71,1098.02v-160.86h-46.55c-.16-.66-.38-1.31-.7-1.93-1.04-2.06-2.83-3.58-5.02-4.3-4.53-1.48-9.41,1-10.89,5.53-.29.88-.43,1.79-.43,2.69,0,1.34.32,2.67.94,3.9,1.04,2.06,2.83,3.59,5.02,4.3,4.53,1.48,9.42-1,10.89-5.53.08-.24.14-.49.2-.73h42.62v153.02h-38.25v89.51c-.83.15-1.64.42-2.41.81-2.06,1.04-3.59,2.83-4.3,5.02-.29.88-.43,1.79-.43,2.69,0,1.34.32,2.67.94,3.9,1.04,2.06,2.83,3.58,5.02,4.3,2.19.72,4.53.54,6.59-.51,2.06-1.04,3.59-2.83,4.3-5.02.72-2.19.53-4.53-.51-6.59-1.04-2.06-2.83-3.59-5.02-4.3-.09-.03-.17-.05-.26-.07v-85.81h38.25Zm-50.48-157.43c-.39,1.2-1.23,2.17-2.35,2.74-1.12.57-2.4.67-3.6.28-1.2-.39-2.17-1.23-2.74-2.35-.57-1.12-.67-2.4-.28-3.6.81-2.47,3.48-3.82,5.95-3.02,1.2.39,2.17,1.23,2.74,2.35.34.67.51,1.4.51,2.13,0,.49-.08.99-.24,1.47Zm14,249.39c.34.67.51,1.4.51,2.13,0,.49-.08.99-.24,1.47-.39,1.2-1.23,2.17-2.35,2.74-1.12.57-2.4.67-3.6.28-1.2-.39-2.17-1.23-2.74-2.35-.57-1.13-.67-2.41-.28-3.6.39-1.2,1.23-2.17,2.35-2.74,1.12-.57,2.4-.67,3.6-.28,1.2.39,2.17,1.23,2.74,2.35Z"/>
      <path class="cls-31" d="m1081.73,37.85l44.47,44.47v55.44c-4.18.6-7.4,4.2-7.4,8.54,0,4.76,3.87,8.64,8.64,8.64s8.64-3.88,8.64-8.64c0-3.83-2.5-7.07-5.96-8.21v-57.4l-44.47-44.47V-96.36h-62.67c-.79-3.95-4.29-6.94-8.47-6.94-4.76,0-8.64,3.88-8.64,8.64s3.87,8.64,8.64,8.64c3.99,0,7.35-2.73,8.34-6.41h58.88V37.85Zm50.42,108.45c0,2.6-2.11,4.71-4.71,4.71s-4.71-2.11-4.71-4.71,2.11-4.71,4.71-4.71,4.71,2.11,4.71,4.71Zm-117.64-236.25c-2.6,0-4.71-2.11-4.71-4.71s2.11-4.71,4.71-4.71,4.71,2.12,4.71,4.71-2.11,4.71-4.71,4.71Z"/>
      <path class="cls-48" d="m1000.97,117.04c-7.3,0-13.24,5.94-13.24,13.24,0,6.61,4.87,12.09,11.21,13.07v136.58c-2.51.96-4.31,3.37-4.31,6.22,0,3.69,2.99,6.68,6.68,6.68s6.68-2.99,6.68-6.68c0-3.15-2.19-5.77-5.12-6.48v-136.3c6.41-.92,11.35-6.43,11.35-13.09,0-7.3-5.94-13.24-13.24-13.24Zm0,22.56c-5.14,0-9.32-4.18-9.32-9.32s4.18-9.32,9.32-9.32,9.32,4.18,9.32,9.32-4.18,9.32-9.32,9.32Z"/>
      <path class="cls-52" d="m999.34,665.32v-41.52c2.31-.72,4.16-2.64,4.61-5.18.65-3.63-1.77-7.1-5.4-7.74-3.63-.65-7.1,1.77-7.74,5.4-.6,3.35,1.44,6.54,4.61,7.52v43.76l19.36,11.47v139.53c-3.05.53-5.73,2.68-6.76,5.83-.29.88-.43,1.79-.43,2.69,0,1.34.32,2.67.94,3.9,1.04,2.06,2.83,3.59,5.02,4.3,2.19.72,4.53.54,6.59-.51,2.06-1.04,3.59-2.83,4.3-5.02.72-2.19.53-4.53-.51-6.59-1.04-2.06-2.83-3.59-5.02-4.3-.07-.02-.14-.04-.22-.06v-142.01l-19.36-11.47Zm21.09,159.62c.34.67.51,1.4.51,2.13,0,.49-.08.99-.24,1.47-.39,1.2-1.23,2.17-2.35,2.74-1.12.57-2.4.67-3.6.28-1.2-.39-2.17-1.23-2.74-2.35-.57-1.12-.67-2.4-.28-3.6.81-2.47,3.48-3.82,5.95-3.02,1.2.39,2.17,1.23,2.74,2.35Z"/>
      <path class="cls-28" d="m938.03,795.59v75.17c-3.16.45-5.96,2.63-7.01,5.86-.29.88-.43,1.79-.43,2.69,0,1.34.32,2.67.94,3.9,1.04,2.06,2.83,3.59,5.02,4.3,4.53,1.48,9.42-1,10.89-5.53.72-2.19.54-4.53-.51-6.59-1.04-2.04-2.8-3.56-4.98-4.28v-73.89l46.97-46.97v-33.7c.67-.16,1.32-.38,1.95-.7,2.06-1.04,3.59-2.83,4.3-5.02.72-2.19.54-4.53-.51-6.59-1.04-2.06-2.83-3.59-5.02-4.3-2.19-.72-4.53-.54-6.59.51-2.06,1.04-3.58,2.83-4.3,5.02-.29.88-.43,1.79-.43,2.69,0,1.34.32,2.67.94,3.9,1.04,2.06,2.83,3.59,5.02,4.3.24.08.48.14.72.2v32.08l-46.97,46.97Zm5.4,81.58c.34.67.51,1.4.51,2.13,0,.49-.08.99-.24,1.47-.39,1.2-1.23,2.17-2.35,2.74-1.12.57-2.4.67-3.6.28-1.2-.39-2.17-1.23-2.74-2.35-.57-1.12-.67-2.4-.28-3.6.81-2.47,3.48-3.82,5.95-3.02,1.2.39,2.17,1.23,2.74,2.35Zm39.33-166.9c-.57-1.12-.67-2.4-.28-3.6.39-1.2,1.23-2.17,2.35-2.74,1.12-.57,2.4-.67,3.6-.28,1.2.39,2.17,1.23,2.74,2.35.34.67.51,1.4.51,2.13,0,.49-.08.99-.24,1.47-.39,1.2-1.23,2.17-2.35,2.74-1.12.57-2.4.67-3.6.28-1.2-.39-2.17-1.23-2.74-2.35Z"/>
      <path class="cls-25" d="m961.82,1120.67l-61.06-61.06v-134.22l-42.34-42.34v-108.11c6.14-.84,11.05-5.93,11.42-12.34.2-3.54-.97-6.93-3.32-9.57-2.35-2.64-5.59-4.21-9.12-4.42-3.53-.21-6.93.97-9.58,3.33-2.64,2.35-4.21,5.59-4.42,9.12-.02.26-.02.53-.02.79,0,3.25,1.17,6.34,3.35,8.78,2.05,2.3,4.77,3.78,7.76,4.27v109.78l42.34,42.34v134.22l61.06,61.06v91.64l-36.17,36.17v52.92h3.92v-51.3l36.17-36.17v-94.89Zm-114.5-359.39c.15-2.48,1.25-4.76,3.11-6.42,1.86-1.66,4.25-2.49,6.74-2.34,2.48.15,4.76,1.25,6.42,3.11,1.53,1.72,2.36,3.9,2.36,6.18,0,.18,0,.37-.02.56-.3,5.13-4.72,9.06-9.85,8.76-5.13-.3-9.03-4.66-8.76-9.85Z"/>
      <path class="cls-34" d="m980.13,1120.67l-61.06-61.06v-134.22l-42.34-42.34v-167.74l31.88-31.88v-59.58c2.39-.67,4.31-2.63,4.77-5.23.65-3.63-1.77-7.1-5.4-7.74-3.63-.65-7.1,1.77-7.74,5.4-.59,3.3,1.37,6.44,4.45,7.47v58.06l-31.88,31.88v170.99l42.34,42.34v134.22l61.06,61.06v91.64l-36.17,36.17v52.92h3.92v-51.3l36.17-36.17v-94.89Z"/>
      <path class="cls-30" d="m736.62,1018.57h-72.07v-7.19h113.76v-132.25l-41.69-41.69h-57.87c-.16-.6-.37-1.2-.66-1.77-1.04-2.06-2.83-3.59-5.02-4.3-2.19-.72-4.53-.54-6.59.51-2.06,1.04-3.58,2.83-4.3,5.02-.29.88-.43,1.79-.43,2.69,0,1.34.32,2.67.94,3.9,1.04,2.06,2.83,3.59,5.02,4.3,2.19.72,4.53.54,6.59-.51,2.06-1.04,3.59-2.83,4.3-5.02.1-.3.18-.6.24-.9h56.16l39.39,39.39v126.7h-109.84v-3.27h24.33l37.77-37.77v-92.95c.76-.15,1.51-.4,2.22-.76,2.06-1.04,3.59-2.83,4.3-5.02.72-2.19.54-4.53-.51-6.59-1.04-2.06-2.83-3.59-5.02-4.3-2.19-.72-4.53-.54-6.59.51-2.06,1.04-3.59,2.83-4.3,5.02-.29.88-.43,1.79-.43,2.69,0,1.34.32,2.67.94,3.9,1.04,2.06,2.83,3.58,5.02,4.3.15.05.3.08.45.12v91.47l-35.47,35.47h-22.71v-5.89h17.63v-74.85c.57-.15,1.13-.37,1.67-.64,2.06-1.04,3.59-2.83,4.3-5.02.72-2.19.54-4.53-.51-6.59-1.04-2.06-2.83-3.59-5.02-4.3-2.19-.72-4.53-.54-6.59.51-2.06,1.04-3.58,2.83-4.3,5.02-.29.88-.43,1.79-.43,2.69,0,1.34.32,2.67.94,3.9,1.04,2.06,2.83,3.59,5.02,4.3.33.11.66.19,1,.26v70.81h-13.71v-5.67l-29.45-17v-141.96l15.53-15.53h155.8v164.46h26.3c.14.44.31.88.52,1.31,1.04,2.06,2.83,3.58,5.02,4.3,2.19.72,4.53.54,6.59-.51,2.06-1.04,3.59-2.83,4.3-5.02.72-2.2.54-4.53-.51-6.59-1.04-2.06-2.83-3.59-5.02-4.3-2.19-.72-4.53-.54-6.59.51-2.06,1.04-3.59,2.83-4.3,5.02-.15.45-.25.9-.33,1.36h-22.06v-164.46h-161.35l-17.82,17.82v141.32l-22.89-13.21-9.15,5.28v-119.5h-131.44v3.92h127.51v117.84l-8.5,4.91v-67.32l-33.52-33.52h-78.3v3.92h76.68l31.22,31.22v67.96l-30.76,17.76v3.53l-43.46-43.46v-47.25h38.91v28.52c-.85.14-1.69.41-2.49.82-2.06,1.04-3.59,2.83-4.3,5.02-.29.88-.43,1.79-.43,2.69,0,1.34.32,2.67.94,3.9,1.04,2.06,2.83,3.58,5.02,4.3,2.19.72,4.53.54,6.59-.51,2.06-1.04,3.59-2.83,4.3-5.02.72-2.19.54-4.53-.51-6.59-1.04-2.06-2.83-3.59-5.02-4.3-.06-.02-.12-.03-.18-.05v-32.7h-46.75v52.8l47.39,47.39v3.61l-71.18-71.18-2.77,2.77,73.89,73.89.06-.06v5.86h-37.41l-48.97,48.96,2.77,2.77,47.82-47.81h35.78v7.19h-37.41l-48.97,48.97,2.77,2.77,47.82-47.82h35.78v7.85h-37.41l-48.97,48.97,2.77,2.77,47.82-47.82h35.78v14.17l39.26,22.66v140.22l-34.99,34.98v71.76h3.92v-70.14l34.99-34.98v-139.58l10.46,6.04v249.12h3.92v-248.37l13.08-7.55v140.33l34.98,34.98v70.14h3.92v-71.76l-34.98-34.98v-140.97l20.29-11.71,48.38,48.37v188.83h3.92v-190.45l-48.78-48.78,14.15-8.17v-5.02h22.05l55.09,55.09v188.17h3.92v-189.79l-57.39-57.39h-23.68v-6.54h29.92c24.73,24,61.37,60,64.88,64.61v188.45h3.92v-188.98c0-1.04,0-2.79-66.64-67.45l-.57-.55h-31.51v-7.85h70.44l64.74,64.74h34.16v220.37h3.92v-224.29h-36.46l-64.74-64.74Zm-61.75-177.53c-.39,1.2-1.23,2.17-2.35,2.74-1.12.57-2.4.67-3.6.28-1.2-.39-2.17-1.23-2.74-2.35-.57-1.12-.67-2.4-.28-3.6.39-1.2,1.23-2.17,2.35-2.74,1.12-.57,2.4-.67,3.6-.28,1.2.39,2.17,1.23,2.74,2.35.34.67.51,1.4.51,2.13,0,.49-.08.99-.24,1.47Zm45.89,26.09c-.57-1.13-.67-2.4-.28-3.6.39-1.2,1.23-2.17,2.35-2.74,1.12-.57,2.4-.67,3.6-.28,1.2.39,2.17,1.23,2.74,2.35.34.67.51,1.4.51,2.13,0,.49-.08.99-.24,1.47-.39,1.2-1.23,2.17-2.35,2.74-1.12.57-2.4.67-3.6.28-1.2-.39-2.17-1.23-2.74-2.35Zm-45.02,46.18c-.57-1.12-.67-2.4-.28-3.6.39-1.2,1.23-2.17,2.35-2.74,1.12-.57,2.4-.67,3.6-.28,1.2.39,2.17,1.23,2.74,2.35.34.67.51,1.4.51,2.13,0,.49-.08.99-.24,1.47-.39,1.2-1.23,2.17-2.35,2.74-1.12.57-2.4.67-3.6.28-1.2-.39-2.17-1.23-2.74-2.35Zm160.73,57.38c.39-1.2,1.23-2.17,2.35-2.74,1.12-.57,2.4-.67,3.6-.28,1.2.39,2.17,1.23,2.74,2.35.34.67.51,1.4.51,2.13,0,.49-.08.99-.24,1.47-.39,1.2-1.23,2.17-2.35,2.74-1.12.57-2.4.67-3.6.28-1.2-.39-2.17-1.23-2.74-2.35-.57-1.13-.66-2.41-.28-3.6Zm-283.37-38.19c.34.67.51,1.4.51,2.13,0,.49-.08.99-.24,1.47-.39,1.2-1.23,2.17-2.35,2.74-1.12.57-2.4.67-3.6.28-1.2-.39-2.17-1.23-2.74-2.35-.57-1.13-.67-2.4-.28-3.6.39-1.2,1.23-2.17,2.35-2.74,1.12-.57,2.4-.67,3.6-.28,1.2.39,2.17,1.23,2.74,2.35Zm56.05,84.32c-1.12.57-2.4.67-3.6.28-1.2-.39-2.17-1.23-2.74-2.35-.57-1.13-.67-2.41-.28-3.6.39-1.2,1.23-2.17,2.35-2.74,1.12-.57,2.4-.67,3.6-.28,1.2.39,2.17,1.23,2.74,2.35.34.67.51,1.4.51,2.13,0,.49-.08.99-.24,1.47-.39,1.2-1.23,2.17-2.35,2.74Zm51.48,30.66l-51.03,29.46v-56.09c.45-.14.89-.31,1.32-.53,2.06-1.04,3.59-2.83,4.3-5.02.72-2.19.54-4.53-.51-6.59-1.04-2.06-2.83-3.59-5.02-4.3-2.19-.72-4.53-.54-6.59.51-2.06,1.04-3.59,2.83-4.3,5.02-.29.88-.43,1.79-.43,2.69,0,1.34.32,2.67.94,3.9,1.04,2.06,2.83,3.58,5.02,4.3.44.15.89.24,1.34.32v55.04l-49.72-28.71v-60.43l52.34-30.22,22.89,13.21v.14h.24l29.21,16.87v60.43Z"/>
      <path class="cls-40" d="m1079.94,803.76l28.28,28.28v33.52h-32.33c-.16-.66-.38-1.31-.7-1.93-1.04-2.06-2.83-3.59-5.02-4.3-4.53-1.48-9.41,1-10.9,5.53-.29.88-.43,1.79-.43,2.69,0,1.34.32,2.67.94,3.9,1.04,2.06,2.83,3.59,5.02,4.3,2.19.72,4.53.54,6.59-.51,2.06-1.04,3.59-2.83,4.3-5.02.08-.24.14-.49.2-.73h36.25v-39.07l-30.58-30.58h-37.12v1.97c.4,64.97.73,163.16.05,167.33l-.04.19v148.63h-36.95v109.37l-27.79,27.79v38.09h3.92v-36.46l27.79-27.79v-107.07h36.95v-152.25c.9-8.24.15-142.34.01-165.89h31.55Zm-7.98,65.23c-.39,1.2-1.23,2.17-2.35,2.74-1.12.57-2.4.67-3.6.28-1.2-.39-2.17-1.23-2.74-2.35-.57-1.12-.67-2.4-.28-3.6.81-2.47,3.48-3.82,5.95-3.02,1.2.39,2.17,1.23,2.74,2.35.34.67.51,1.4.51,2.13,0,.49-.08.99-.24,1.47Z"/>
      <path class="cls-16" d="m733.36,577.17l31.71-31.71h67.51c.58,3.09,3.29,5.43,6.55,5.43,3.69,0,6.68-2.99,6.68-6.68s-2.99-6.68-6.68-6.68c-2.73,0-5.07,1.65-6.11,4h-69.58l-34.01,34.01v69.96h-341.84v3.92h345.76v-72.26Z"/>
      <path class="cls-1" d="m506.28,225.69h63.26l34.83-34.83V-6.12h45.12v-35.31h18.31V9.42l-37.93,37.93v205.49h26.01c33.05,32.18,80.27,78.63,93.97,93.22-.39.6-.72,1.26-.9,2-.9,3.58,1.27,7.2,4.85,8.1,3.58.9,7.2-1.27,8.1-4.85.9-3.58-1.27-7.2-4.85-8.1-1.5-.38-2.99-.19-4.3.39-8.24-9-31.12-32.23-94.7-94.13l-.57-.56h-23.68V48.97l37.93-37.93v-56.4h-22.23v-22.55c4.16.86,8.83,1.37,10.7-.11.69-.55,1.07-1.32,1.07-2.19v-71.44l-82.56-82.56h-80.26v3.92h78.64l80.26,80.26v68.98c-1.38.17-4.63-.2-7.85-.89v-47.32h-48.39v-50.35h-96.78v3.92h92.86v46.43h-60.81V-6.12h41.2v195.36l-32.53,32.53h-61.64v3.92h22.89Zm94.16-36.45l-32.53,32.53h-7.53l30.9-30.9V-6.12h9.15v195.36Zm-60.16-304.57h105.28V-10.05h-105.28v-105.28Zm41.2,306.19V-6.12h5.89v195.36l-32.53,32.53h-4.26l30.9-30.9Z"/>
      <path class="cls-7" d="m601.26,773.03h181.46l94.99-94.99v-54.75c3.67-1.48,6.26-5.07,6.26-9.27,0-5.53-4.48-10-10-10s-10,4.48-10,10,4.38,9.9,9.83,10v52.4l-92.69,92.69h-181.46l-45.94,45.94h-144.85v3.92h146.47l45.94-45.94Z"/>
      <path class="cls-21" d="m694.61-75.6l-11.12,11.12V-7.92l22.89,22.89v239.33l88.45,88.45h36.01c.61,4.94,4.82,8.76,9.92,8.76,5.53,0,10-4.48,10-10s-4.48-10-10-10c-4.6,0-8.46,3.1-9.63,7.32h-34.68l-86.15-86.15V13.34l-22.89-22.89v-53.3l11.12-11.12v-72.9l-165.36-165.36-2.77,2.77,164.21,164.21v69.65Z"/>
      <path class="cls-37" d="m771.7,237.6c-.36.58-.67,1.2-.84,1.9-.9,3.58,1.27,7.2,4.85,8.1,3.58.9,7.2-1.27,8.1-4.85.9-3.58-1.27-7.2-4.85-8.1-1.49-.37-2.99-.19-4.29.39-6.04-6.17-17.11-16.97-20.87-20.63V-321.31h-3.92V216.06l.59.58c6.53,6.35,16.03,15.68,21.24,20.96Z"/>
      <path class="cls-43" d="m731.88,243.83l29.06,29.06c-.92,1.51-1.46,3.28-1.46,5.18,0,5.53,4.48,10,10,10s10-4.48,10-10-4.48-10-10-10c-2.2,0-4.24.72-5.89,1.93l-27.79-27.79V-241.69l-38.58-38.58v-48.23h-3.92v49.86l38.58,38.58V243.83Z"/>
      <path class="cls-22" d="m716.35,496.74h112.84c.95,4.53,4.97,7.93,9.79,7.93,5.53,0,10-4.48,10-10s-4.48-10-10-10c-4.89,0-8.96,3.51-9.83,8.15h-114.43l-81.74,81.74h-118.86v3.92h120.48l81.74-81.74Z"/>
      <path class="cls-18" d="m715.86,250.05l76.02,76.02h14.94c.78,1.88,2.39,3.39,4.52,3.92,3.58.9,7.2-1.27,8.1-4.85.9-3.58-1.27-7.2-4.85-8.1-3.58-.9-7.2,1.27-8.1,4.85-.02.08-.02.17-.04.25h-12.95l-73.72-73.73V-152.1l-69.15-69.15v-107.9h-3.92v109.53l69.15,69.15V250.05Z"/>
      <path class="cls-17" d="m509.55,505.9h74.55v-56.68c6.88-.08,12.65-5.48,13.06-12.45.45-7.32-5.16-13.57-12.45-13.99-3.53-.21-6.93.98-9.57,3.33-2.64,2.35-4.21,5.59-4.42,9.12-.02.26-.02.53-.02.79,0,3.25,1.17,6.34,3.35,8.78,1.67,1.87,3.79,3.2,6.13,3.89v53.29h-70.62v3.92Zm67.42-63.71c-1.66-1.86-2.48-4.24-2.34-6.74.15-2.48,1.25-4.76,3.11-6.42,1.86-1.65,4.25-2.48,6.74-2.34,4.95.29,8.78,4.41,8.78,9.3,0,.18,0,.37-.02.55-.3,5.13-4.72,9.06-9.85,8.76-2.48-.15-4.76-1.25-6.42-3.11Z"/>
      <path class="cls-24" d="m830.3,858.1c-3.69,0-6.68,2.99-6.68,6.68s2.99,6.68,6.68,6.68,6.68-2.99,6.68-6.68-2.99-6.68-6.68-6.68Z"/>
      <circle class="cls-29" cx="682.19" cy="608.96" r="6.68" transform="translate(-121.66 173.03) rotate(-13.28)"/>
      <circle class="cls-39" cx="830.3" cy="890.47" r="6.68" transform="translate(-182.38 214.59) rotate(-13.28)"/>
      <path class="cls-45" d="m962.39,806.63c-3.69,0-6.68,2.99-6.68,6.68s2.99,6.68,6.68,6.68,6.68-2.99,6.68-6.68-2.99-6.68-6.68-6.68Z"/>
      <path class="cls-10" d="m962.39,835.4c-3.69,0-6.68,2.99-6.68,6.68s2.99,6.68,6.68,6.68,6.68-2.99,6.68-6.68-2.99-6.68-6.68-6.68Z"/>
      <circle class="cls-23" cx="830.3" cy="922.84" r="6.68" transform="translate(-137.1 144.92) rotate(-9.22)"/>
      <circle class="cls-44" cx="661.59" cy="745.3" r="6.68" transform="translate(-153.54 171.94) rotate(-13.28)"/>
      <circle class="cls-46" cx="629.22" cy="745.3" r="6.68" transform="translate(-111.26 110.41) rotate(-9.22)"/>
      <path class="cls-32" d="m972.27,624v51.13l-25.83,25.83v55.89c-2.88.64-5.36,2.74-6.35,5.74-.29.88-.43,1.79-.43,2.69,0,1.34.32,2.67.94,3.9,1.04,2.06,2.83,3.59,5.02,4.3,4.53,1.48,9.42-1,10.89-5.53.72-2.2.54-4.53-.51-6.59-1.04-2.06-2.83-3.58-5.02-4.3-.21-.07-.42-.12-.62-.17v-54.31l25.83-25.83v-53.2c1.97-.87,3.48-2.66,3.89-4.94.65-3.63-1.77-7.1-5.4-7.74-3.63-.65-7.1,1.77-7.74,5.4-.64,3.61,1.74,7.04,5.33,7.72Zm-19.76,139.14c.34.67.51,1.4.51,2.13,0,.49-.08.99-.24,1.47-.39,1.2-1.23,2.17-2.35,2.74-1.12.57-2.4.67-3.6.28-1.2-.39-2.17-1.23-2.74-2.35-.57-1.12-.67-2.4-.28-3.6.81-2.47,3.48-3.82,5.95-3.02,1.2.39,2.17,1.23,2.74,2.35Z"/>
      <path class="cls-5" d="m837.5,461.43c3.58.9,7.2-1.27,8.1-4.85.9-3.58-1.27-7.2-4.85-8.1-3.17-.79-6.37.82-7.68,3.69-13.04-.2-43.09-.63-73.05-.88-80.93-.66-82.16.57-83.14,1.56l-91.96,91.96h-68.17v3.92h69.8l92.81-92.81c7.17-1.55,92.54-.79,153.2.16.44,2.53,2.3,4.68,4.95,5.35Z"/>
      <path class="cls-51" d="m840.75,365.43c-3.32-.83-6.65,1-7.84,4.12h-98.58l-86.65-86.64h-140.1v3.92h138.47l86.65,86.64h99.96c.57,2.33,2.35,4.28,4.83,4.91,3.58.9,7.2-1.27,8.1-4.85.9-3.58-1.27-7.2-4.85-8.1Z"/>
      <path class="cls-27" d="m837.5,401.27c3.58.9,7.2-1.27,8.1-4.85.9-3.58-1.27-7.2-4.85-8.1-3.21-.8-6.43.87-7.72,3.79h-116.68l-81.74-81.74h-120.48v3.92h118.86l81.74,81.74h117.86c.47,2.47,2.31,4.58,4.92,5.23Z"/>
      <path class="cls-47" d="m762.96,102.43c3.58.9,7.2-1.27,8.1-4.85.75-2.98-.65-5.97-3.21-7.41V-64.16l37.93-37.93v-232.3h-3.92V-103.71l-37.93,37.93V89.34c-2.72.27-5.12,2.19-5.82,4.99-.9,3.58,1.27,7.2,4.85,8.1Z"/>
      <path class="cls-41" d="m720.5,416.71s0,.07-.02.11c-31.46,0-39.41-.53-41.14-.88l-92.81-92.81h-69.8v3.92h68.17l91.95,91.95c.89.89,1.74,1.74,43.89,1.74.76,1.95,2.41,3.52,4.59,4.07,3.58.9,7.2-1.27,8.1-4.85.9-3.58-1.27-7.2-4.85-8.1-3.58-.9-7.2,1.27-8.1,4.85Z"/>
      <path class="cls-53" d="m766.08,468.35c-86.92-.78-88.19.49-89.21,1.51l-91.96,91.95h-68.17v3.92h69.8l92.81-92.81c2.24-.46,15.67-1.29,86.72-.65.84,2.73,3.35,4.73,6.35,4.73,3.69,0,6.68-2.99,6.68-6.68s-2.99-6.68-6.68-6.68c-2.99,0-5.5,1.98-6.35,4.7Z"/>
      <path class="cls-42" d="m840.76,425.01c-4.76,0-8.74,3.33-9.75,7.79-60.56.94-144.55,1.67-151.66.14l-92.81-92.81h-69.8v3.92h68.17l91.96,91.96c.99.99,2.21,2.22,83.14,1.56,28.4-.23,56.9-.63,70.9-.84.81,4.71,4.91,8.3,9.85,8.3,5.53,0,10-4.48,10-10s-4.48-10-10-10Z"/>
      <path class="cls-4" d="m767.83,160.41c-.7,3.62,1.67,7.12,5.29,7.82,3.62.7,7.12-1.67,7.82-5.29.7-3.62-1.67-7.12-5.29-7.82-3.62-.7-7.12,1.67-7.82,5.29Z"/>
      <path class="cls-36" d="m791.14,156.22c-3.01,2.13-3.73,6.29-1.61,9.3,2.13,3.01,6.29,3.73,9.3,1.61,3.01-2.13,3.73-6.29,1.61-9.3-2.13-3.01-6.29-3.73-9.3-1.61Z"/>
      <path class="cls-26" d="m827.86-4.72c-3.01,2.13-3.73,6.29-1.61,9.3,2.13,3.01,6.29,3.73,9.3,1.61,3.01-2.13,3.73-6.29,1.61-9.3-2.13-3.01-6.29-3.73-9.3-1.61Z"/>
    </g>
  </g>
  <path class="cls-15" d="m512,929.41C70.58,669.43,147.55,271.99,147.55,271.99c150.81,0,364.45-174.37,364.45-174.37"/>
  <path class="cls-20" d="m512,1024l-11.82-6.96c-119.74-70.52-217.16-155.67-289.55-253.08-58.16-78.26-100.33-164.49-125.35-256.3-42.71-156.71-20.75-274.4-19.8-279.33l3.65-18.86h19.21c165.1,0,406.52-195.48,408.94-197.45L512,0l14.72,12.02c2.42,1.97,244.01,197.45,408.94,197.45h19.21l3.65,18.86c.96,4.93,22.91,122.62-19.8,279.33-25.02,91.81-67.2,178.04-125.36,256.3-72.39,97.41-169.81,182.56-289.55,253.08l-11.82,6.96ZM108.74,255.25c-4.07,37.56-8.95,129.97,22.07,242.38,53.16,192.59,181.39,351.42,381.18,472.24,249.53-151.04,345.39-340.86,381.79-474.45,30.49-111.88,25.6-202.96,21.51-240.16-73.57-5.54-164-40.43-269.23-103.91-61.29-36.97-110.62-73.55-134.06-91.64-23.44,18.09-72.77,54.67-134.06,91.64-105.21,63.47-195.64,98.36-269.2,103.91Z"/>
  <g>
    <circle class="cls-20" cx="512" cy="453.98" r="108.92"/>
    <rect class="cls-20" x="458.26" y="421.4" width="107.49" height="257.54" rx="53.74" ry="53.74"/>
  </g>
</svg>